STARTFONT 2.1
COMMENT
COMMENT Shinonome 16dot font for ISO 8859-1
COMMENT
COMMENT The original is designed by
COMMENT   Yasuyuki Furukawa <Furukawa.Yasuyuki@fujixerox.co.jp>, 2000.
COMMENT   (Public Domain)
COMMENT
COMMENT Modified and Maintained by /efont/.
COMMENT
COMMENT (c) /efont/ -- Efont Open Laboratory 2001
COMMENT http://openlab.ring.gr.jp/efont/
COMMENT
FONT -Shinonome-Gothic-Bold-R-Normal--16-150-75-75-C-80-ISO8859-1
SIZE 16 75 75
FONTBOUNDINGBOX 8 16 0 -2
STARTPROPERTIES 20
FONTNAME_REGISTRY ""
FOUNDRY "Shinonome"
FAMILY_NAME "Gothic"
WEIGHT_NAME "Bold"
SLANT "R"
SETWIDTH_NAME "Normal"
ADD_STYLE_NAME ""
PIXEL_SIZE 16
POINT_SIZE 150
RESOLUTION_X 75
RESOLUTION_Y 75
SPACING "C"
AVERAGE_WIDTH 80
CHARSET_REGISTRY "ISO8859"
CHARSET_ENCODING "1"
DEFAULT_CHAR 32
FONT_DESCENT 2
FONT_ASCENT 14
COPYRIGHT "Public Domain"
_XMBDFED_INFO "Edited with xmbdfed 4.4."
ENDPROPERTIES
CHARS 221
STARTCHAR 01
ENCODING 1
SWIDTH 480 0
DWIDTH 8 0
BBX 8 16 0 -2
BITMAP
18
18
3c
3c
7e
7e
ff
ff
7e
7e
3c
3c
18
18
00
00
ENDCHAR
STARTCHAR 02
ENCODING 2
SWIDTH 480 0
DWIDTH 8 0
BBX 8 16 0 -2
BITMAP
6a
d5
6a
d5
6a
d5
6a
d5
6a
d5
6a
d5
6a
d5
00
00
ENDCHAR
STARTCHAR 03
ENCODING 3
SWIDTH 480 0
DWIDTH 8 0
BBX 8 16 0 -2
BITMAP
00
cc
cc
cc
fc
cc
cc
cc
00
3f
0c
0c
0c
0c
0c
0c
ENDCHAR
STARTCHAR 04
ENCODING 4
SWIDTH 480 0
DWIDTH 8 0
BBX 8 16 0 -2
BITMAP
00
fc
c0
c0
f8
c0
c0
c0
3f
30
30
3e
30
30
30
00
ENDCHAR
STARTCHAR 05
ENCODING 5
SWIDTH 480 0
DWIDTH 8 0
BBX 8 16 0 -2
BITMAP
00
78
cc
c0
c0
c0
cc
78
00
3e
33
33
3e
34
36
33
ENDCHAR
STARTCHAR 06
ENCODING 6
SWIDTH 480 0
DWIDTH 8 0
BBX 8 16 0 -2
BITMAP
00
c0
c0
c0
c0
c0
c0
fc
00
3f
30
30
3e
30
30
30
ENDCHAR
STARTCHAR 07
ENCODING 7
SWIDTH 480 0
DWIDTH 8 0
BBX 8 16 0 -2
BITMAP
00
00
3c
66
66
66
3c
00
00
00
00
00
00
00
00
00
ENDCHAR
STARTCHAR    8
ENCODING 8
SWIDTH 480 0
DWIDTH 8 0
BBX 8 16 0 -2
BITMAP
00
00
18
18
18
18
ff
18
18
18
18
00
ff
00
00
00
ENDCHAR
STARTCHAR    9
ENCODING 9
SWIDTH 480 0
DWIDTH 8 0
BBX 8 16 0 -2
BITMAP
00
c6
e6
d6
d6
da
da
ce
c6
30
30
30
30
30
30
3f
ENDCHAR
STARTCHAR    a
ENCODING 10
SWIDTH 480 0
DWIDTH 8 0
BBX 8 16 0 -2
BITMAP
00
00
cc
cc
cc
68
68
30
00
3f
0c
0c
0c
0c
0c
00
ENDCHAR
STARTCHAR    b
ENCODING 11
SWIDTH 480 0
DWIDTH 8 0
BBX 8 16 0 -2
BITMAP
18
18
18
18
18
18
18
18
f8
00
00
00
00
00
00
00
ENDCHAR
STARTCHAR    c
ENCODING 12
SWIDTH 480 0
DWIDTH 8 0
BBX 8 16 0 -2
BITMAP
00
00
00
00
00
00
00
00
f8
18
18
18
18
18
18
18
ENDCHAR
STARTCHAR    d
ENCODING 13
SWIDTH 480 0
DWIDTH 8 0
BBX 8 16 0 -2
BITMAP
00
00
00
00
00
00
00
00
1f
18
18
18
18
18
18
18
ENDCHAR
STARTCHAR    e
ENCODING 14
SWIDTH 480 0
DWIDTH 8 0
BBX 8 16 0 -2
BITMAP
18
18
18
18
18
18
18
18
1f
00
00
00
00
00
00
00
ENDCHAR
STARTCHAR    f
ENCODING 15
SWIDTH 480 0
DWIDTH 8 0
BBX 8 16 0 -2
BITMAP
18
18
18
18
18
18
18
18
ff
18
18
18
18
18
18
18
ENDCHAR
STARTCHAR   10
ENCODING 16
SWIDTH 480 0
DWIDTH 8 0
BBX 8 16 0 -2
BITMAP
00
00
ff
00
00
00
00
00
00
00
00
00
00
00
00
00
ENDCHAR
STARTCHAR   11
ENCODING 17
SWIDTH 480 0
DWIDTH 8 0
BBX 8 16 0 -2
BITMAP
00
00
00
00
00
ff
00
00
00
00
00
00
00
00
00
00
ENDCHAR
STARTCHAR   12
ENCODING 18
SWIDTH 480 0
DWIDTH 8 0
BBX 8 16 0 -2
BITMAP
00
00
00
00
00
00
00
00
ff
00
00
00
00
00
00
00
ENDCHAR
STARTCHAR   13
ENCODING 19
SWIDTH 480 0
DWIDTH 8 0
BBX 8 16 0 -2
BITMAP
00
00
00
00
00
00
00
00
00
00
00
ff
00
00
00
00
ENDCHAR
STARTCHAR   14
ENCODING 20
SWIDTH 480 0
DWIDTH 8 0
BBX 8 16 0 -2
BITMAP
00
00
00
00
00
00
00
00
00
00
00
00
00
00
ff
00
ENDCHAR
STARTCHAR   15
ENCODING 21
SWIDTH 480 0
DWIDTH 8 0
BBX 8 16 0 -2
BITMAP
18
18
18
18
18
18
18
18
1f
18
18
18
18
18
18
18
ENDCHAR
STARTCHAR   16
ENCODING 22
SWIDTH 480 0
DWIDTH 8 0
BBX 8 16 0 -2
BITMAP
18
18
18
18
18
18
18
18
f8
18
18
18
18
18
18
18
ENDCHAR
STARTCHAR   17
ENCODING 23
SWIDTH 480 0
DWIDTH 8 0
BBX 8 16 0 -2
BITMAP
18
18
18
18
18
18
18
18
ff
00
00
00
00
00
00
00
ENDCHAR
STARTCHAR   18
ENCODING 24
SWIDTH 480 0
DWIDTH 8 0
BBX 8 16 0 -2
BITMAP
00
00
00
00
00
00
00
00
ff
18
18
18
18
18
18
18
ENDCHAR
STARTCHAR   19
ENCODING 25
SWIDTH 480 0
DWIDTH 8 0
BBX 8 16 0 -2
BITMAP
18
18
18
18
18
18
18
18
18
18
18
18
18
18
18
18
ENDCHAR
STARTCHAR   1a
ENCODING 26
SWIDTH 480 0
DWIDTH 8 0
BBX 8 16 0 -2
BITMAP
00
00
03
0e
38
e0
38
0e
03
00
ff
00
ff
00
00
00
ENDCHAR
STARTCHAR   1b
ENCODING 27
SWIDTH 480 0
DWIDTH 8 0
BBX 8 16 0 -2
BITMAP
00
00
00
c0
70
1c
07
1c
70
c0
ff
00
ff
00
00
00
ENDCHAR
STARTCHAR   1c
ENCODING 28
SWIDTH 480 0
DWIDTH 8 0
BBX 8 16 0 -2
BITMAP
00
00
00
00
00
00
00
ff
36
36
36
36
66
c6
00
00
ENDCHAR
STARTCHAR   1d
ENCODING 29
SWIDTH 480 0
DWIDTH 8 0
BBX 8 16 0 -2
BITMAP
00
00
00
00
03
06
0c
ff
18
ff
30
60
c0
00
00
00
ENDCHAR
STARTCHAR   1e
ENCODING 30
SWIDTH 480 0
DWIDTH 8 0
BBX 8 16 0 -2
BITMAP
00
00
00
00
0e
1b
18
18
18
7e
18
18
3e
6b
30
00
ENDCHAR
STARTCHAR   1f
ENCODING 31
SWIDTH 480 0
DWIDTH 8 0
BBX 8 16 0 -2
BITMAP
00
00
00
00
00
00
00
00
18
00
00
00
00
00
00
00
ENDCHAR
STARTCHAR 20
ENCODING 32
SWIDTH 480 0
DWIDTH 8 0
BBX 8 16 0 -2
BITMAP
00
00
00
00
00
00
00
00
00
00
00
00
00
00
00
00
ENDCHAR
STARTCHAR 21
ENCODING 33
SWIDTH 480 0
DWIDTH 8 0
BBX 8 16 0 -2
BITMAP
00
1c
1c
1c
1c
18
18
18
18
18
18
00
00
18
18
00
ENDCHAR
STARTCHAR 22
ENCODING 34
SWIDTH 480 0
DWIDTH 8 0
BBX 8 16 0 -2
BITMAP
76
36
36
6c
00
00
00
00
00
00
00
00
00
00
00
00
ENDCHAR
STARTCHAR 23
ENCODING 35
SWIDTH 480 0
DWIDTH 8 0
BBX 8 16 0 -2
BITMAP
00
1b
1b
1b
7f
36
36
36
36
36
ff
6c
6c
6c
6c
00
ENDCHAR
STARTCHAR 24
ENCODING 36
SWIDTH 480 0
DWIDTH 8 0
BBX 8 16 0 -2
BITMAP
18
3c
6a
db
db
d8
68
3c
1a
1b
db
db
6a
3c
18
18
ENDCHAR
STARTCHAR 25
ENCODING 37
SWIDTH 480 0
DWIDTH 8 0
BBX 8 16 0 -2
BITMAP
01
71
db
db
da
da
74
0c
18
1b
35
35
6d
6d
c7
c0
ENDCHAR
STARTCHAR 26
ENCODING 38
SWIDTH 480 0
DWIDTH 8 0
BBX 8 16 0 -2
BITMAP
00
3c
66
66
66
34
18
38
6d
cd
c6
c6
6d
39
00
00
ENDCHAR
STARTCHAR 27
ENCODING 39
SWIDTH 480 0
DWIDTH 8 0
BBX 8 16 0 -2
BITMAP
70
30
30
60
00
00
00
00
00
00
00
00
00
00
00
00
ENDCHAR
STARTCHAR 28
ENCODING 40
SWIDTH 480 0
DWIDTH 8 0
BBX 8 16 0 -2
BITMAP
00
03
06
0c
0c
18
18
18
18
18
18
18
0c
0c
06
03
ENDCHAR
STARTCHAR 29
ENCODING 41
SWIDTH 480 0
DWIDTH 8 0
BBX 8 16 0 -2
BITMAP
00
60
30
18
18
0c
0c
0c
0c
0c
0c
0c
18
18
30
60
ENDCHAR
STARTCHAR 2a
ENCODING 42
SWIDTH 480 0
DWIDTH 8 0
BBX 8 16 0 -2
BITMAP
00
00
00
00
18
db
6a
3c
6a
db
18
00
00
00
00
00
ENDCHAR
STARTCHAR 2b
ENCODING 43
SWIDTH 480 0
DWIDTH 8 0
BBX 8 16 0 -2
BITMAP
00
00
00
18
18
18
18
ff
18
18
18
18
00
00
00
00
ENDCHAR
STARTCHAR 2c
ENCODING 44
SWIDTH 480 0
DWIDTH 8 0
BBX 8 16 0 -2
BITMAP
00
00
00
00
00
00
00
00
00
00
00
00
70
30
30
60
ENDCHAR
STARTCHAR 2d
ENCODING 45
SWIDTH 480 0
DWIDTH 8 0
BBX 8 16 0 -2
BITMAP
00
00
00
00
00
00
00
ff
00
00
00
00
00
00
00
00
ENDCHAR
STARTCHAR 2e
ENCODING 46
SWIDTH 480 0
DWIDTH 8 0
BBX 8 16 0 -2
BITMAP
00
00
00
00
00
00
00
00
00
00
00
00
70
70
00
00
ENDCHAR
STARTCHAR 2f
ENCODING 47
SWIDTH 480 0
DWIDTH 8 0
BBX 8 16 0 -2
BITMAP
00
03
03
06
06
0c
0c
18
18
30
30
60
60
c0
c0
00
ENDCHAR
STARTCHAR 30
ENCODING 48
SWIDTH 480 0
DWIDTH 8 0
BBX 8 16 0 -2
BITMAP
00
1c
36
36
63
63
63
63
63
63
63
36
36
1c
00
00
ENDCHAR
STARTCHAR 31
ENCODING 49
SWIDTH 480 0
DWIDTH 8 0
BBX 8 16 0 -2
BITMAP
00
18
18
38
68
18
18
18
18
18
18
18
18
18
00
00
ENDCHAR
STARTCHAR 32
ENCODING 50
SWIDTH 480 0
DWIDTH 8 0
BBX 8 16 0 -2
BITMAP
00
1c
36
63
63
03
06
0c
18
30
30
60
60
7f
00
00
ENDCHAR
STARTCHAR 33
ENCODING 51
SWIDTH 480 0
DWIDTH 8 0
BBX 8 16 0 -2
BITMAP
00
3c
66
c3
c3
03
06
3c
06
03
c3
c3
66
3c
00
00
ENDCHAR
STARTCHAR 34
ENCODING 52
SWIDTH 480 0
DWIDTH 8 0
BBX 8 16 0 -2
BITMAP
00
0c
1c
1c
34
34
6c
6c
cc
ff
0c
0c
0c
0c
00
00
ENDCHAR
STARTCHAR 35
ENCODING 53
SWIDTH 480 0
DWIDTH 8 0
BBX 8 16 0 -2
BITMAP
00
7e
60
60
60
dc
e6
c3
03
03
c3
c3
66
3c
00
00
ENDCHAR
STARTCHAR 36
ENCODING 54
SWIDTH 480 0
DWIDTH 8 0
BBX 8 16 0 -2
BITMAP
00
3c
66
60
c0
c0
dc
e6
c3
c3
c3
c3
66
3c
00
00
ENDCHAR
STARTCHAR 37
ENCODING 55
SWIDTH 480 0
DWIDTH 8 0
BBX 8 16 0 -2
BITMAP
00
ff
03
06
06
0c
0c
0c
0c
18
18
18
18
18
18
00
ENDCHAR
STARTCHAR 38
ENCODING 56
SWIDTH 480 0
DWIDTH 8 0
BBX 8 16 0 -2
BITMAP
00
3c
66
c3
c3
c3
66
3c
66
c3
c3
c3
66
3c
00
00
ENDCHAR
STARTCHAR 39
ENCODING 57
SWIDTH 480 0
DWIDTH 8 0
BBX 8 16 0 -2
BITMAP
00
3c
66
c3
c3
c3
c3
67
3d
03
03
c3
66
3c
00
00
ENDCHAR
STARTCHAR 3a
ENCODING 58
SWIDTH 480 0
DWIDTH 8 0
BBX 8 16 0 -2
BITMAP
00
00
00
00
1c
1c
00
00
00
00
00
1c
1c
00
00
00
ENDCHAR
STARTCHAR 3b
ENCODING 59
SWIDTH 480 0
DWIDTH 8 0
BBX 8 16 0 -2
BITMAP
00
00
00
00
1c
1c
00
00
00
00
1c
0c
0c
18
00
00
ENDCHAR
STARTCHAR 3c
ENCODING 60
SWIDTH 480 0
DWIDTH 8 0
BBX 8 16 0 -2
BITMAP
00
00
00
03
06
0c
18
30
30
18
0c
06
03
00
00
00
ENDCHAR
STARTCHAR 3d
ENCODING 61
SWIDTH 480 0
DWIDTH 8 0
BBX 8 16 0 -2
BITMAP
00
00
00
00
00
ff
00
00
00
ff
00
00
00
00
00
00
ENDCHAR
STARTCHAR 3e
ENCODING 62
SWIDTH 480 0
DWIDTH 8 0
BBX 8 16 0 -2
BITMAP
00
00
00
60
30
18
0c
06
06
0c
18
30
60
00
00
00
ENDCHAR
STARTCHAR 3f
ENCODING 63
SWIDTH 480 0
DWIDTH 8 0
BBX 8 16 0 -2
BITMAP
00
3c
66
c3
c3
c3
06
0c
0c
18
18
00
00
18
18
00
ENDCHAR
STARTCHAR 40
ENCODING 64
SWIDTH 480 0
DWIDTH 8 0
BBX 8 16 0 -2
BITMAP
00
1c
36
63
6d
da
d6
d6
d6
dd
60
60
33
1e
00
00
ENDCHAR
STARTCHAR 41
ENCODING 65
SWIDTH 480 0
DWIDTH 8 0
BBX 8 16 0 -2
BITMAP
00
18
18
34
34
34
66
66
66
7e
c3
c3
c3
c3
00
00
ENDCHAR
STARTCHAR 42
ENCODING 66
SWIDTH 480 0
DWIDTH 8 0
BBX 8 16 0 -2
BITMAP
00
f8
cc
c6
c6
c6
cc
fc
c6
c3
c3
c3
c6
fc
00
00
ENDCHAR
STARTCHAR 43
ENCODING 67
SWIDTH 480 0
DWIDTH 8 0
BBX 8 16 0 -2
BITMAP
00
3c
66
63
c0
c0
c0
c0
c0
c0
c0
63
66
3c
00
00
ENDCHAR
STARTCHAR 44
ENCODING 68
SWIDTH 480 0
DWIDTH 8 0
BBX 8 16 0 -2
BITMAP
00
f8
cc
c6
c6
c3
c3
c3
c3
c3
c6
c6
cc
f8
00
00
ENDCHAR
STARTCHAR 45
ENCODING 69
SWIDTH 480 0
DWIDTH 8 0
BBX 8 16 0 -2
BITMAP
00
ff
c0
c0
c0
c0
c0
fe
c0
c0
c0
c0
c0
ff
00
00
ENDCHAR
STARTCHAR 46
ENCODING 70
SWIDTH 480 0
DWIDTH 8 0
BBX 8 16 0 -2
BITMAP
00
ff
c0
c0
c0
c0
c0
fe
c0
c0
c0
c0
c0
c0
00
00
ENDCHAR
STARTCHAR 47
ENCODING 71
SWIDTH 480 0
DWIDTH 8 0
BBX 8 16 0 -2
BITMAP
00
1c
36
63
60
c0
c0
cf
c3
c3
c3
63
77
1d
00
00
ENDCHAR
STARTCHAR 48
ENCODING 72
SWIDTH 480 0
DWIDTH 8 0
BBX 8 16 0 -2
BITMAP
00
c3
c3
c3
c3
c3
c3
ff
c3
c3
c3
c3
c3
c3
00
00
ENDCHAR
STARTCHAR 49
ENCODING 73
SWIDTH 480 0
DWIDTH 8 0
BBX 8 16 0 -2
BITMAP
00
3c
18
18
18
18
18
18
18
18
18
18
18
3c
00
00
ENDCHAR
STARTCHAR 4a
ENCODING 74
SWIDTH 480 0
DWIDTH 8 0
BBX 8 16 0 -2
BITMAP
00
03
03
03
03
03
03
03
03
03
03
63
36
1c
00
00
ENDCHAR
STARTCHAR 4b
ENCODING 75
SWIDTH 480 0
DWIDTH 8 0
BBX 8 16 0 -2
BITMAP
00
63
63
66
66
6c
6c
74
76
66
63
63
61
61
00
00
ENDCHAR
STARTCHAR 4c
ENCODING 76
SWIDTH 480 0
DWIDTH 8 0
BBX 8 16 0 -2
BITMAP
00
60
60
60
60
60
60
60
60
60
60
60
60
7f
00
00
ENDCHAR
STARTCHAR 4d
ENCODING 77
SWIDTH 480 0
DWIDTH 8 0
BBX 8 16 0 -2
BITMAP
00
c3
c3
e7
e7
e7
d5
d5
d5
db
db
db
db
c3
00
00
ENDCHAR
STARTCHAR 4e
ENCODING 78
SWIDTH 480 0
DWIDTH 8 0
BBX 8 16 0 -2
BITMAP
00
c3
e3
e3
d3
d3
db
db
db
cd
cd
c7
c7
c3
00
00
ENDCHAR
STARTCHAR 4f
ENCODING 79
SWIDTH 480 0
DWIDTH 8 0
BBX 8 16 0 -2
BITMAP
00
3c
66
66
c3
c3
c3
c3
c3
c3
c3
66
66
3c
00
00
ENDCHAR
STARTCHAR 50
ENCODING 80
SWIDTH 480 0
DWIDTH 8 0
BBX 8 16 0 -2
BITMAP
00
fc
c6
c3
c3
c3
c6
fc
c0
c0
c0
c0
c0
c0
00
00
ENDCHAR
STARTCHAR 51
ENCODING 81
SWIDTH 480 0
DWIDTH 8 0
BBX 8 16 0 -2
BITMAP
00
3c
66
66
c3
c3
c3
c3
c3
c3
dd
66
66
3c
0c
07
ENDCHAR
STARTCHAR 52
ENCODING 82
SWIDTH 480 0
DWIDTH 8 0
BBX 8 16 0 -2
BITMAP
00
fc
c6
c3
c3
c3
c6
fc
cc
c6
c6
c6
c3
c3
00
00
ENDCHAR
STARTCHAR 53
ENCODING 83
SWIDTH 480 0
DWIDTH 8 0
BBX 8 16 0 -2
BITMAP
00
3c
66
c3
c3
c0
70
1c
06
03
c3
c3
66
3c
00
00
ENDCHAR
STARTCHAR 54
ENCODING 84
SWIDTH 480 0
DWIDTH 8 0
BBX 8 16 0 -2
BITMAP
00
ff
18
18
18
18
18
18
18
18
18
18
18
18
00
00
ENDCHAR
STARTCHAR 55
ENCODING 85
SWIDTH 480 0
DWIDTH 8 0
BBX 8 16 0 -2
BITMAP
00
c3
c3
c3
c3
c3
c3
c3
c3
c3
c3
c3
66
3c
00
00
ENDCHAR
STARTCHAR 56
ENCODING 86
SWIDTH 480 0
DWIDTH 8 0
BBX 8 16 0 -2
BITMAP
00
c3
c3
c3
c3
66
66
66
34
34
34
18
18
18
00
00
ENDCHAR
STARTCHAR 57
ENCODING 87
SWIDTH 480 0
DWIDTH 8 0
BBX 8 16 0 -2
BITMAP
00
db
db
db
db
db
db
d5
d5
76
66
66
66
66
00
00
ENDCHAR
STARTCHAR 58
ENCODING 88
SWIDTH 480 0
DWIDTH 8 0
BBX 8 16 0 -2
BITMAP
00
c3
66
66
34
34
18
34
34
34
66
66
c3
c3
00
00
ENDCHAR
STARTCHAR 59
ENCODING 89
SWIDTH 480 0
DWIDTH 8 0
BBX 8 16 0 -2
BITMAP
00
c3
c3
66
66
66
34
34
18
18
18
18
18
18
00
00
ENDCHAR
STARTCHAR 5a
ENCODING 90
SWIDTH 480 0
DWIDTH 8 0
BBX 8 16 0 -2
BITMAP
00
ff
06
06
0c
0c
18
18
30
30
60
60
c0
ff
00
00
ENDCHAR
STARTCHAR 5b
ENCODING 91
SWIDTH 480 0
DWIDTH 8 0
BBX 8 16 0 -2
BITMAP
1f
18
18
18
18
18
18
18
18
18
18
18
18
18
18
1f
ENDCHAR
STARTCHAR 5c
ENCODING 92
SWIDTH 480 0
DWIDTH 8 0
BBX 8 16 0 -2
BITMAP
00
c0
c0
60
60
30
30
18
18
0c
0c
06
06
03
03
00
ENDCHAR
STARTCHAR 5d
ENCODING 93
SWIDTH 480 0
DWIDTH 8 0
BBX 8 16 0 -2
BITMAP
f8
18
18
18
18
18
18
18
18
18
18
18
18
18
18
f8
ENDCHAR
STARTCHAR 5e
ENCODING 94
SWIDTH 480 0
DWIDTH 8 0
BBX 8 16 0 -2
BITMAP
18
34
66
c3
00
00
00
00
00
00
00
00
00
00
00
00
ENDCHAR
STARTCHAR 5f
ENCODING 95
SWIDTH 480 0
DWIDTH 8 0
BBX 8 16 0 -2
BITMAP
00
00
00
00
00
00
00
00
00
00
00
00
00
00
ff
00
ENDCHAR
STARTCHAR 60
ENCODING 96
SWIDTH 480 0
DWIDTH 8 0
BBX 8 16 0 -2
BITMAP
38
30
30
18
00
00
00
00
00
00
00
00
00
00
00
00
ENDCHAR
STARTCHAR 61
ENCODING 97
SWIDTH 480 0
DWIDTH 8 0
BBX 8 16 0 -2
BITMAP
00
00
00
00
00
3e
63
03
3f
63
c3
c3
c7
7d
00
00
ENDCHAR
STARTCHAR 62
ENCODING 98
SWIDTH 480 0
DWIDTH 8 0
BBX 8 16 0 -2
BITMAP
00
c0
c0
c0
c0
dc
e6
c3
c3
c3
c3
c3
e6
dc
00
00
ENDCHAR
STARTCHAR 63
ENCODING 99
SWIDTH 480 0
DWIDTH 8 0
BBX 8 16 0 -2
BITMAP
00
00
00
00
00
3c
66
c3
c0
c0
c0
c3
66
3c
00
00
ENDCHAR
STARTCHAR 64
ENCODING 100
SWIDTH 480 0
DWIDTH 8 0
BBX 8 16 0 -2
BITMAP
00
03
03
03
03
3d
67
c3
c3
c3
c3
c3
67
3d
00
00
ENDCHAR
STARTCHAR 65
ENCODING 101
SWIDTH 480 0
DWIDTH 8 0
BBX 8 16 0 -2
BITMAP
00
00
00
00
00
3c
66
c3
c3
ff
c0
c3
66
3c
00
00
ENDCHAR
STARTCHAR 66
ENCODING 102
SWIDTH 480 0
DWIDTH 8 0
BBX 8 16 0 -2
BITMAP
00
0e
18
18
18
7e
18
18
18
18
18
18
18
18
00
00
ENDCHAR
STARTCHAR 67
ENCODING 103
SWIDTH 480 0
DWIDTH 8 0
BBX 8 16 0 -2
BITMAP
00
00
00
00
00
3d
66
66
66
3c
60
7c
c6
c3
c3
7e
ENDCHAR
STARTCHAR 68
ENCODING 104
SWIDTH 480 0
DWIDTH 8 0
BBX 8 16 0 -2
BITMAP
00
60
60
60
60
6e
73
63
63
63
63
63
63
63
00
00
ENDCHAR
STARTCHAR 69
ENCODING 105
SWIDTH 480 0
DWIDTH 8 0
BBX 8 16 0 -2
BITMAP
00
18
18
00
00
38
18
18
18
18
18
18
18
18
00
00
ENDCHAR
STARTCHAR 6a
ENCODING 106
SWIDTH 480 0
DWIDTH 8 0
BBX 8 16 0 -2
BITMAP
00
0c
0c
00
00
1c
0c
0c
0c
0c
0c
0c
0c
0c
18
70
ENDCHAR
STARTCHAR 6b
ENCODING 107
SWIDTH 480 0
DWIDTH 8 0
BBX 8 16 0 -2
BITMAP
00
60
60
60
60
63
66
6c
68
74
66
66
63
63
00
00
ENDCHAR
STARTCHAR 6c
ENCODING 108
SWIDTH 480 0
DWIDTH 8 0
BBX 8 16 0 -2
BITMAP
00
38
18
18
18
18
18
18
18
18
18
18
18
18
00
00
ENDCHAR
STARTCHAR 6d
ENCODING 109
SWIDTH 480 0
DWIDTH 8 0
BBX 8 16 0 -2
BITMAP
00
00
00
00
00
f6
db
db
db
db
db
db
db
db
00
00
ENDCHAR
STARTCHAR 6e
ENCODING 110
SWIDTH 480 0
DWIDTH 8 0
BBX 8 16 0 -2
BITMAP
00
00
00
00
00
6e
73
63
63
63
63
63
63
63
00
00
ENDCHAR
STARTCHAR 6f
ENCODING 111
SWIDTH 480 0
DWIDTH 8 0
BBX 8 16 0 -2
BITMAP
00
00
00
00
00
3c
66
c3
c3
c3
c3
c3
66
3c
00
00
ENDCHAR
STARTCHAR 70
ENCODING 112
SWIDTH 480 0
DWIDTH 8 0
BBX 8 16 0 -2
BITMAP
00
00
00
00
00
dc
e6
c3
c3
c3
c3
e6
dc
c0
c0
c0
ENDCHAR
STARTCHAR 71
ENCODING 113
SWIDTH 480 0
DWIDTH 8 0
BBX 8 16 0 -2
BITMAP
00
00
00
00
00
3d
67
c3
c3
c3
c3
67
3d
03
03
03
ENDCHAR
STARTCHAR 72
ENCODING 114
SWIDTH 480 0
DWIDTH 8 0
BBX 8 16 0 -2
BITMAP
00
00
00
00
00
36
38
30
30
30
30
30
30
30
00
00
ENDCHAR
STARTCHAR 73
ENCODING 115
SWIDTH 480 0
DWIDTH 8 0
BBX 8 16 0 -2
BITMAP
00
00
00
00
00
3e
63
60
70
1c
07
03
63
3e
00
00
ENDCHAR
STARTCHAR 74
ENCODING 116
SWIDTH 480 0
DWIDTH 8 0
BBX 8 16 0 -2
BITMAP
00
00
18
18
18
7e
18
18
18
18
18
18
18
0e
00
00
ENDCHAR
STARTCHAR 75
ENCODING 117
SWIDTH 480 0
DWIDTH 8 0
BBX 8 16 0 -2
BITMAP
00
00
00
00
00
63
63
63
63
63
63
63
67
3d
00
00
ENDCHAR
STARTCHAR 76
ENCODING 118
SWIDTH 480 0
DWIDTH 8 0
BBX 8 16 0 -2
BITMAP
00
00
00
00
00
c3
c3
c3
66
66
34
34
18
18
00
00
ENDCHAR
STARTCHAR 77
ENCODING 119
SWIDTH 480 0
DWIDTH 8 0
BBX 8 16 0 -2
BITMAP
00
00
00
00
00
db
db
db
db
d5
d5
66
66
66
00
00
ENDCHAR
STARTCHAR 78
ENCODING 120
SWIDTH 480 0
DWIDTH 8 0
BBX 8 16 0 -2
BITMAP
00
00
00
00
00
c3
66
34
34
18
34
34
66
c3
00
00
ENDCHAR
STARTCHAR 79
ENCODING 121
SWIDTH 480 0
DWIDTH 8 0
BBX 8 16 0 -2
BITMAP
00
00
00
00
00
c3
c3
66
66
34
34
1c
18
18
30
e0
ENDCHAR
STARTCHAR 7a
ENCODING 122
SWIDTH 480 0
DWIDTH 8 0
BBX 8 16 0 -2
BITMAP
00
00
00
00
00
7f
06
0c
0c
18
18
30
60
ff
00
00
ENDCHAR
STARTCHAR 7b
ENCODING 123
SWIDTH 480 0
DWIDTH 8 0
BBX 8 16 0 -2
BITMAP
06
0c
0c
0c
0c
0c
0c
18
0c
0c
0c
0c
0c
0c
0c
06
ENDCHAR
STARTCHAR 7c
ENCODING 124
SWIDTH 480 0
DWIDTH 8 0
BBX 8 16 0 -2
BITMAP
18
18
18
18
18
18
18
18
18
18
18
18
18
18
18
18
ENDCHAR
STARTCHAR 7d
ENCODING 125
SWIDTH 480 0
DWIDTH 8 0
BBX 8 16 0 -2
BITMAP
60
30
30
30
30
30
30
18
30
30
30
30
30
30
30
60
ENDCHAR
STARTCHAR 7e
ENCODING 126
SWIDTH 480 0
DWIDTH 8 0
BBX 8 16 0 -2
BITMAP
00
00
00
70
db
0e
00
00
00
00
00
00
00
00
00
00
ENDCHAR
STARTCHAR a1
ENCODING 161
SWIDTH 480 0
DWIDTH 8 0
BBX 8 16 0 -2
BITMAP
00
18
18
00
00
18
18
18
18
18
18
18
38
38
38
38
ENDCHAR
STARTCHAR a2
ENCODING 162
SWIDTH 480 0
DWIDTH 8 0
BBX 8 16 0 -2
BITMAP
00
00
18
3e
6b
db
d8
d8
d8
d8
d8
db
6b
3e
18
00
ENDCHAR
STARTCHAR a3
ENCODING 163
SWIDTH 480 0
DWIDTH 8 0
BBX 8 16 0 -2
BITMAP
00
00
00
00
0e
1b
18
18
18
7e
18
18
3e
6b
30
00
ENDCHAR
STARTCHAR a4
ENCODING 164
SWIDTH 480 0
DWIDTH 8 0
BBX 8 16 0 -2
BITMAP
00
00
00
00
00
63
3e
36
36
3e
63
00
00
00
00
00
ENDCHAR
STARTCHAR a5
ENCODING 165
SWIDTH 480 0
DWIDTH 8 0
BBX 8 16 0 -2
BITMAP
c3
c3
66
66
66
34
34
ff
18
ff
18
18
18
18
00
00
ENDCHAR
STARTCHAR a6
ENCODING 166
SWIDTH 480 0
DWIDTH 8 0
BBX 8 16 0 -2
BITMAP
00
18
18
18
18
18
00
00
00
18
18
18
18
18
00
00
ENDCHAR
STARTCHAR a7
ENCODING 167
SWIDTH 480 0
DWIDTH 8 0
BBX 8 16 0 -2
BITMAP
00
3e
63
60
30
3e
63
63
63
3e
06
03
63
3e
00
00
ENDCHAR
STARTCHAR a8
ENCODING 168
SWIDTH 480 0
DWIDTH 8 0
BBX 8 16 0 -2
BITMAP
00
36
36
36
00
00
00
00
00
00
00
00
00
00
00
00
ENDCHAR
STARTCHAR a9
ENCODING 169
SWIDTH 480 0
DWIDTH 8 0
BBX 8 16 0 -2
BITMAP
00
00
3e
63
dd
d6
d1
d1
d1
d6
d6
dd
63
3e
00
00
ENDCHAR
STARTCHAR aa
ENCODING 170
SWIDTH 480 0
DWIDTH 8 0
BBX 8 16 0 -2
BITMAP
00
1e
33
1f
33
37
1d
00
3f
00
00
00
00
00
00
00
ENDCHAR
STARTCHAR ab
ENCODING 171
SWIDTH 480 0
DWIDTH 8 0
BBX 8 16 0 -2
BITMAP
00
00
00
0d
1b
36
6c
d8
d8
6c
36
1b
0d
00
00
00
ENDCHAR
STARTCHAR ac
ENCODING 172
SWIDTH 480 0
DWIDTH 8 0
BBX 8 16 0 -2
BITMAP
00
00
00
00
00
00
00
ff
ff
07
07
00
00
00
00
00
ENDCHAR
STARTCHAR ad
ENCODING 173
SWIDTH 480 0
DWIDTH 8 0
BBX 8 16 0 -2
BITMAP
00
00
00
00
00
00
00
ff
ff
00
00
00
00
00
00
00
ENDCHAR
STARTCHAR ae
ENCODING 174
SWIDTH 480 0
DWIDTH 8 0
BBX 8 16 0 -2
BITMAP
00
00
3e
63
dd
d6
d6
dd
d5
d6
d6
d3
63
3e
00
00
ENDCHAR
STARTCHAR af
ENCODING 175
SWIDTH 480 0
DWIDTH 8 0
BBX 8 16 0 -2
BITMAP
00
00
ff
00
00
00
00
00
00
00
00
00
00
00
00
00
ENDCHAR
STARTCHAR b0
ENCODING 176
SWIDTH 480 0
DWIDTH 8 0
BBX 8 16 0 -2
BITMAP
00
3c
66
66
66
3c
00
00
00
00
00
00
00
00
00
00
ENDCHAR
STARTCHAR b1
ENCODING 177
SWIDTH 480 0
DWIDTH 8 0
BBX 8 16 0 -2
BITMAP
00
00
00
00
18
18
18
ff
18
18
18
00
ff
00
00
00
ENDCHAR
STARTCHAR b2
ENCODING 178
SWIDTH 480 0
DWIDTH 8 0
BBX 8 16 0 -2
BITMAP
00
1c
36
06
0c
18
30
3e
00
00
00
00
00
00
00
00
ENDCHAR
STARTCHAR b3
ENCODING 179
SWIDTH 480 0
DWIDTH 8 0
BBX 8 16 0 -2
BITMAP
00
1c
36
06
1c
06
36
1c
00
00
00
00
00
00
00
00
ENDCHAR
STARTCHAR b4
ENCODING 180
SWIDTH 480 0
DWIDTH 8 0
BBX 8 16 0 -2
BITMAP
00
0e
1c
38
00
00
00
00
00
00
00
00
00
00
00
00
ENDCHAR
STARTCHAR b5
ENCODING 181
SWIDTH 480 0
DWIDTH 8 0
BBX 8 16 0 -2
BITMAP
00
00
00
00
00
00
00
33
33
33
66
66
76
6a
c3
c0
ENDCHAR
STARTCHAR b6
ENCODING 182
SWIDTH 480 0
DWIDTH 8 0
BBX 8 16 0 -2
BITMAP
00
3e
7a
7a
7a
7a
3a
1a
1a
1a
1a
1a
1a
1a
00
00
ENDCHAR
STARTCHAR b7
ENCODING 183
SWIDTH 480 0
DWIDTH 8 0
BBX 8 16 0 -2
BITMAP
00
00
00
00
00
00
1c
1c
00
00
00
00
00
00
00
00
ENDCHAR
STARTCHAR b8
ENCODING 184
SWIDTH 480 0
DWIDTH 8 0
BBX 8 16 0 -2
BITMAP
00
00
00
00
00
00
00
00
00
00
00
00
00
0e
0c
18
ENDCHAR
STARTCHAR b9
ENCODING 185
SWIDTH 480 0
DWIDTH 8 0
BBX 8 16 0 -2
BITMAP
00
0c
1c
34
0c
0c
0c
0c
00
00
00
00
00
00
00
00
ENDCHAR
STARTCHAR ba
ENCODING 186
SWIDTH 480 0
DWIDTH 8 0
BBX 8 16 0 -2
BITMAP
00
1c
36
36
36
36
1c
00
3e
00
00
00
00
00
00
00
ENDCHAR
STARTCHAR bb
ENCODING 187
SWIDTH 480 0
DWIDTH 8 0
BBX 8 16 0 -2
BITMAP
00
00
00
00
d8
6c
36
1b
0d
0d
1b
36
6c
d8
00
00
ENDCHAR
STARTCHAR bc
ENCODING 188
SWIDTH 480 0
DWIDTH 8 0
BBX 8 16 0 -2
BITMAP
00
60
e6
66
6c
6c
68
1b
33
37
6d
6f
c3
c3
00
00
ENDCHAR
STARTCHAR bd
ENCODING 189
SWIDTH 480 0
DWIDTH 8 0
BBX 8 16 0 -2
BITMAP
00
60
e6
66
6c
6c
68
1e
3b
33
66
6c
cc
df
00
00
ENDCHAR
STARTCHAR be
ENCODING 190
SWIDTH 480 0
DWIDTH 8 0
BBX 8 16 0 -2
BITMAP
00
70
db
1b
76
1a
dc
75
1b
1b
35
3f
63
63
00
00
ENDCHAR
STARTCHAR bf
ENCODING 191
SWIDTH 480 0
DWIDTH 8 0
BBX 8 16 0 -2
BITMAP
0c
0c
00
00
0c
0c
0c
18
30
30
61
61
61
33
1e
00
ENDCHAR
STARTCHAR c0
ENCODING 192
SWIDTH 480 0
DWIDTH 8 0
BBX 8 16 0 -2
BITMAP
38
18
0c
18
18
34
34
66
66
7e
c3
c3
c3
c3
00
00
ENDCHAR
STARTCHAR c1
ENCODING 193
SWIDTH 480 0
DWIDTH 8 0
BBX 8 16 0 -2
BITMAP
1c
18
30
18
18
34
34
66
66
7e
c3
c3
c3
c3
00
00
ENDCHAR
STARTCHAR c2
ENCODING 194
SWIDTH 480 0
DWIDTH 8 0
BBX 8 16 0 -2
BITMAP
18
3c
66
18
18
34
34
66
66
7e
c3
c3
c3
c3
00
00
ENDCHAR
STARTCHAR c3
ENCODING 195
SWIDTH 480 0
DWIDTH 8 0
BBX 8 16 0 -2
BITMAP
3a
6c
00
18
18
34
34
66
66
7e
c3
c3
c3
c3
00
00
ENDCHAR
STARTCHAR c4
ENCODING 196
SWIDTH 480 0
DWIDTH 8 0
BBX 8 16 0 -2
BITMAP
66
66
00
18
18
34
34
66
66
7e
c3
c3
c3
c3
00
00
ENDCHAR
STARTCHAR c5
ENCODING 197
SWIDTH 480 0
DWIDTH 8 0
BBX 8 16 0 -2
BITMAP
18
34
18
18
18
34
34
66
66
7e
c3
c3
c3
c3
00
00
ENDCHAR
STARTCHAR c6
ENCODING 198
SWIDTH 480 0
DWIDTH 8 0
BBX 8 16 0 -2
BITMAP
00
00
1f
34
34
34
37
6c
6c
7c
cc
cc
cc
cf
00
00
ENDCHAR
STARTCHAR c7
ENCODING 199
SWIDTH 480 0
DWIDTH 8 0
BBX 8 16 0 -2
BITMAP
00
3c
66
63
c0
c0
c0
c0
c0
c0
63
66
3c
0c
0c
18
ENDCHAR
STARTCHAR c8
ENCODING 200
SWIDTH 480 0
DWIDTH 8 0
BBX 8 16 0 -2
BITMAP
38
18
0c
ff
c0
c0
c0
fe
c0
c0
c0
c0
c0
ff
00
00
ENDCHAR
STARTCHAR c9
ENCODING 201
SWIDTH 480 0
DWIDTH 8 0
BBX 8 16 0 -2
BITMAP
1c
18
30
ff
c0
c0
c0
fe
c0
c0
c0
c0
c0
ff
00
00
ENDCHAR
STARTCHAR ca
ENCODING 202
SWIDTH 480 0
DWIDTH 8 0
BBX 8 16 0 -2
BITMAP
18
3c
66
ff
c0
c0
c0
fe
c0
c0
c0
c0
c0
ff
00
00
ENDCHAR
STARTCHAR cb
ENCODING 203
SWIDTH 480 0
DWIDTH 8 0
BBX 8 16 0 -2
BITMAP
66
66
00
ff
c0
c0
c0
fe
c0
c0
c0
c0
c0
ff
00
00
ENDCHAR
STARTCHAR cc
ENCODING 204
SWIDTH 480 0
DWIDTH 8 0
BBX 8 16 0 -2
BITMAP
38
18
0c
3c
18
18
18
18
18
18
18
18
18
3c
00
00
ENDCHAR
STARTCHAR cd
ENCODING 205
SWIDTH 480 0
DWIDTH 8 0
BBX 8 16 0 -2
BITMAP
1c
18
30
3c
18
18
18
18
18
18
18
18
18
3c
00
00
ENDCHAR
STARTCHAR ce
ENCODING 206
SWIDTH 480 0
DWIDTH 8 0
BBX 8 16 0 -2
BITMAP
18
3c
66
3c
18
18
18
18
18
18
18
18
18
3c
00
00
ENDCHAR
STARTCHAR cf
ENCODING 207
SWIDTH 480 0
DWIDTH 8 0
BBX 8 16 0 -2
BITMAP
66
66
00
3c
18
18
18
18
18
18
18
18
18
3c
00
00
ENDCHAR
STARTCHAR d0
ENCODING 208
SWIDTH 480 0
DWIDTH 8 0
BBX 8 16 0 -2
BITMAP
00
78
6c
66
66
63
63
fb
63
63
66
66
6c
78
00
00
ENDCHAR
STARTCHAR d1
ENCODING 209
SWIDTH 480 0
DWIDTH 8 0
BBX 8 16 0 -2
BITMAP
3a
6c
c3
c3
e3
e3
d3
d3
db
cd
cd
c7
c7
c3
00
00
ENDCHAR
STARTCHAR d2
ENCODING 210
SWIDTH 480 0
DWIDTH 8 0
BBX 8 16 0 -2
BITMAP
38
18
0c
3c
66
c3
c3
c3
c3
c3
c3
c3
66
3c
00
00
ENDCHAR
STARTCHAR d3
ENCODING 211
SWIDTH 480 0
DWIDTH 8 0
BBX 8 16 0 -2
BITMAP
1c
18
30
3c
66
c3
c3
c3
c3
c3
c3
c3
66
3c
00
00
ENDCHAR
STARTCHAR d4
ENCODING 212
SWIDTH 480 0
DWIDTH 8 0
BBX 8 16 0 -2
BITMAP
18
3c
66
3c
66
c3
c3
c3
c3
c3
c3
c3
66
3c
00
00
ENDCHAR
STARTCHAR d5
ENCODING 213
SWIDTH 480 0
DWIDTH 8 0
BBX 8 16 0 -2
BITMAP
3a
6c
00
3c
66
c3
c3
c3
c3
c3
c3
c3
66
3c
00
00
ENDCHAR
STARTCHAR d6
ENCODING 214
SWIDTH 480 0
DWIDTH 8 0
BBX 8 16 0 -2
BITMAP
66
66
00
3c
66
c3
c3
c3
c3
c3
c3
c3
66
3c
00
00
ENDCHAR
STARTCHAR d7
ENCODING 215
SWIDTH 480 0
DWIDTH 8 0
BBX 8 16 0 -2
BITMAP
00
00
00
00
c1
63
36
1c
1c
36
63
c1
00
00
00
00
ENDCHAR
STARTCHAR d8
ENCODING 216
SWIDTH 480 0
DWIDTH 8 0
BBX 8 16 0 -2
BITMAP
03
03
3e
66
c7
cd
cd
db
db
d3
d3
e3
66
7c
c0
c0
ENDCHAR
STARTCHAR d9
ENCODING 217
SWIDTH 480 0
DWIDTH 8 0
BBX 8 16 0 -2
BITMAP
38
18
0c
c3
c3
c3
c3
c3
c3
c3
c3
c3
66
3c
00
00
ENDCHAR
STARTCHAR da
ENCODING 218
SWIDTH 480 0
DWIDTH 8 0
BBX 8 16 0 -2
BITMAP
1c
18
30
c3
c3
c3
c3
c3
c3
c3
c3
c3
66
3c
00
00
ENDCHAR
STARTCHAR db
ENCODING 219
SWIDTH 480 0
DWIDTH 8 0
BBX 8 16 0 -2
BITMAP
18
3c
66
00
c3
c3
c3
c3
c3
c3
c3
c3
66
3c
00
00
ENDCHAR
STARTCHAR dc
ENCODING 220
SWIDTH 480 0
DWIDTH 8 0
BBX 8 16 0 -2
BITMAP
66
66
00
c3
c3
c3
c3
c3
c3
c3
c3
c3
66
3c
00
00
ENDCHAR
STARTCHAR dd
ENCODING 221
SWIDTH 480 0
DWIDTH 8 0
BBX 8 16 0 -2
BITMAP
1c
18
d3
c3
66
66
34
34
18
18
18
18
18
18
00
00
ENDCHAR
STARTCHAR de
ENCODING 222
SWIDTH 480 0
DWIDTH 8 0
BBX 8 16 0 -2
BITMAP
c0
c0
fc
c6
c3
c3
c6
fc
c0
c0
c0
c0
c0
c0
00
00
ENDCHAR
STARTCHAR df
ENCODING 223
SWIDTH 480 0
DWIDTH 8 0
BBX 8 16 0 -2
BITMAP
00
7c
c6
c3
c3
c6
dc
c6
c3
c3
c3
c3
c6
dc
00
00
ENDCHAR
STARTCHAR e0
ENCODING 224
SWIDTH 480 0
DWIDTH 8 0
BBX 8 16 0 -2
BITMAP
00
38
18
0c
00
3e
63
03
3f
63
c3
c3
c7
7d
00
00
ENDCHAR
STARTCHAR e1
ENCODING 225
SWIDTH 480 0
DWIDTH 8 0
BBX 8 16 0 -2
BITMAP
00
1c
18
30
00
3e
63
03
3f
63
c3
c3
c7
7d
00
00
ENDCHAR
STARTCHAR e2
ENCODING 226
SWIDTH 480 0
DWIDTH 8 0
BBX 8 16 0 -2
BITMAP
00
18
3c
66
00
3e
63
03
3f
63
c3
c3
c7
7d
00
00
ENDCHAR
STARTCHAR e3
ENCODING 227
SWIDTH 480 0
DWIDTH 8 0
BBX 8 16 0 -2
BITMAP
00
3a
6c
00
00
3e
63
03
3f
63
c3
c3
c7
7d
00
00
ENDCHAR
STARTCHAR e4
ENCODING 228
SWIDTH 480 0
DWIDTH 8 0
BBX 8 16 0 -2
BITMAP
00
00
36
36
00
3e
63
03
3f
63
c3
c3
c7
7d
00
00
ENDCHAR
STARTCHAR e5
ENCODING 229
SWIDTH 480 0
DWIDTH 8 0
BBX 8 16 0 -2
BITMAP
00
18
34
18
00
3e
63
03
3f
63
c3
c3
c7
7d
00
00
ENDCHAR
STARTCHAR e6
ENCODING 230
SWIDTH 480 0
DWIDTH 8 0
BBX 8 16 0 -2
BITMAP
00
00
00
00
00
76
db
1b
3f
68
d8
db
db
76
00
00
ENDCHAR
STARTCHAR e7
ENCODING 231
SWIDTH 480 0
DWIDTH 8 0
BBX 8 16 0 -2
BITMAP
00
00
00
00
3c
66
c3
c0
c0
c0
c3
66
3c
18
18
30
ENDCHAR
STARTCHAR e8
ENCODING 232
SWIDTH 480 0
DWIDTH 8 0
BBX 8 16 0 -2
BITMAP
00
38
18
0c
00
3c
66
c3
c3
ff
c0
c3
66
3c
00
00
ENDCHAR
STARTCHAR e9
ENCODING 233
SWIDTH 480 0
DWIDTH 8 0
BBX 8 16 0 -2
BITMAP
00
1c
18
30
00
3c
66
c3
c3
ff
c0
c3
66
3c
00
00
ENDCHAR
STARTCHAR ea
ENCODING 234
SWIDTH 480 0
DWIDTH 8 0
BBX 8 16 0 -2
BITMAP
00
18
3c
66
00
3c
66
c3
c3
ff
c0
c3
66
3c
00
00
ENDCHAR
STARTCHAR eb
ENCODING 235
SWIDTH 480 0
DWIDTH 8 0
BBX 8 16 0 -2
BITMAP
00
66
66
00
00
3c
66
c3
c3
ff
c0
c3
66
3c
00
00
ENDCHAR
STARTCHAR ec
ENCODING 236
SWIDTH 480 0
DWIDTH 8 0
BBX 8 16 0 -2
BITMAP
00
38
18
0c
00
38
18
18
18
18
18
18
18
18
00
00
ENDCHAR
STARTCHAR ed
ENCODING 237
SWIDTH 480 0
DWIDTH 8 0
BBX 8 16 0 -2
BITMAP
00
1c
18
30
00
38
18
18
18
18
18
18
18
18
00
00
ENDCHAR
STARTCHAR ee
ENCODING 238
SWIDTH 480 0
DWIDTH 8 0
BBX 8 16 0 -2
BITMAP
00
18
3c
66
00
38
18
18
18
18
18
18
18
18
00
00
ENDCHAR
STARTCHAR ef
ENCODING 239
SWIDTH 480 0
DWIDTH 8 0
BBX 8 16 0 -2
BITMAP
00
66
66
00
00
38
18
18
18
18
18
18
18
18
00
00
ENDCHAR
STARTCHAR f0
ENCODING 240
SWIDTH 480 0
DWIDTH 8 0
BBX 8 16 0 -2
BITMAP
00
76
1c
38
6c
3c
66
c3
c3
c3
c3
c3
66
3c
00
00
ENDCHAR
STARTCHAR f1
ENCODING 241
SWIDTH 480 0
DWIDTH 8 0
BBX 8 16 0 -2
BITMAP
00
3a
6c
00
00
6e
73
63
63
63
63
63
63
63
00
00
ENDCHAR
STARTCHAR f2
ENCODING 242
SWIDTH 480 0
DWIDTH 8 0
BBX 8 16 0 -2
BITMAP
00
38
18
0c
00
3c
66
c3
c3
c3
c3
c3
66
3c
00
00
ENDCHAR
STARTCHAR f3
ENCODING 243
SWIDTH 480 0
DWIDTH 8 0
BBX 8 16 0 -2
BITMAP
00
1c
18
30
00
3c
66
c3
c3
c3
c3
c3
66
3c
00
00
ENDCHAR
STARTCHAR f4
ENCODING 244
SWIDTH 480 0
DWIDTH 8 0
BBX 8 16 0 -2
BITMAP
00
18
3c
66
00
3c
66
c3
c3
c3
c3
c3
66
3c
00
00
ENDCHAR
STARTCHAR f5
ENCODING 245
SWIDTH 480 0
DWIDTH 8 0
BBX 8 16 0 -2
BITMAP
00
3a
6c
00
00
3c
66
c3
c3
c3
c3
c3
66
3c
00
00
ENDCHAR
STARTCHAR f6
ENCODING 246
SWIDTH 480 0
DWIDTH 8 0
BBX 8 16 0 -2
BITMAP
00
66
66
00
00
3c
66
c3
c3
c3
c3
c3
66
3c
00
00
ENDCHAR
STARTCHAR f7
ENCODING 247
SWIDTH 480 0
DWIDTH 8 0
BBX 8 16 0 -2
BITMAP
00
00
00
00
00
18
18
00
ff
00
18
18
00
00
00
00
ENDCHAR
STARTCHAR f8
ENCODING 248
SWIDTH 480 0
DWIDTH 8 0
BBX 8 16 0 -2
BITMAP
00
00
00
00
00
3d
66
cd
cd
db
d3
d3
66
dc
00
00
ENDCHAR
STARTCHAR f9
ENCODING 249
SWIDTH 480 0
DWIDTH 8 0
BBX 8 16 0 -2
BITMAP
00
38
18
0c
00
63
63
63
63
63
63
63
67
3d
00
00
ENDCHAR
STARTCHAR fa
ENCODING 250
SWIDTH 480 0
DWIDTH 8 0
BBX 8 16 0 -2
BITMAP
00
1c
18
30
00
63
63
63
63
63
63
63
67
3d
00
00
ENDCHAR
STARTCHAR fb
ENCODING 251
SWIDTH 480 0
DWIDTH 8 0
BBX 8 16 0 -2
BITMAP
00
18
3c
66
00
63
63
63
63
63
63
63
67
3d
00
00
ENDCHAR
STARTCHAR fc
ENCODING 252
SWIDTH 480 0
DWIDTH 8 0
BBX 8 16 0 -2
BITMAP
00
36
36
00
00
63
63
63
63
63
63
63
67
3d
00
00
ENDCHAR
STARTCHAR fd
ENCODING 253
SWIDTH 480 0
DWIDTH 8 0
BBX 8 16 0 -2
BITMAP
00
0e
0c
18
00
63
63
33
36
1a
0c
0c
18
18
30
60
ENDCHAR
STARTCHAR fe
ENCODING 254
SWIDTH 480 0
DWIDTH 8 0
BBX 8 16 0 -2
BITMAP
00
00
60
60
60
7c
66
63
63
63
66
7c
60
60
60
60
ENDCHAR
STARTCHAR ff
ENCODING 255
SWIDTH 480 0
DWIDTH 8 0
BBX 8 16 0 -2
BITMAP
00
36
36
00
00
63
63
33
36
1a
0c
0c
18
18
30
60
ENDCHAR
ENDFONT
