STARTFONT 2.1
COMMENT
COMMENT Shinonome 16dot font for ISO 8859-1
COMMENT
COMMENT The original is designed by
COMMENT   Yasuyuki Furukawa <Furukawa.Yasuyuki@fujixerox.co.jp>, 2000.
COMMENT   (Public Domain)
COMMENT
COMMENT Modified and Maintained by /efont/.
COMMENT
COMMENT (c) /efont/ -- Efont Open Laboratory 2001
COMMENT http://openlab.ring.gr.jp/efont/
COMMENT
FONT -Shinonome-Gothic-Medium-R-Normal--16-150-75-75-C-80-ISO8859-1
SIZE 16 75 75
FONTBOUNDINGBOX 8 16 0 -2
STARTPROPERTIES 20
FONTNAME_REGISTRY ""
FOUNDRY "Shinonome"
FAMILY_NAME "Gothic"
WEIGHT_NAME "Medium"
SLANT "R"
SETWIDTH_NAME "Normal"
ADD_STYLE_NAME ""
PIXEL_SIZE 16
POINT_SIZE 150
RESOLUTION_X 75
RESOLUTION_Y 75
SPACING "C"
AVERAGE_WIDTH 80
CHARSET_REGISTRY "ISO8859"
CHARSET_ENCODING "1"
DEFAULT_CHAR 32
FONT_DESCENT 2
FONT_ASCENT 14
COPYRIGHT "Public Domain"
_XMBDFED_INFO "Edited with xmbdfed 4.4."
ENDPROPERTIES
CHARS 221
STARTCHAR 01
ENCODING 1
SWIDTH 480 0
DWIDTH 8 0
BBX 8 16 0 -2
BITMAP
10
10
38
38
7c
7c
fe
fe
7c
7c
38
38
10
10
00
00
ENDCHAR
STARTCHAR 02
ENCODING 2
SWIDTH 480 0
DWIDTH 8 0
BBX 8 16 0 -2
BITMAP
55
aa
55
aa
55
aa
55
aa
55
aa
55
aa
55
aa
00
00
ENDCHAR
STARTCHAR 03
ENCODING 3
SWIDTH 480 0
DWIDTH 8 0
BBX 8 16 0 -2
BITMAP
00
88
88
88
f8
88
88
88
00
3e
08
08
08
08
08
08
ENDCHAR
STARTCHAR 04
ENCODING 4
SWIDTH 480 0
DWIDTH 8 0
BBX 8 16 0 -2
BITMAP
00
f8
80
80
f0
80
80
80
3e
20
20
3c
20
20
20
00
ENDCHAR
STARTCHAR 05
ENCODING 5
SWIDTH 480 0
DWIDTH 8 0
BBX 8 16 0 -2
BITMAP
00
70
88
80
80
80
88
70
00
3c
22
22
3c
28
24
22
ENDCHAR
STARTCHAR 06
ENCODING 6
SWIDTH 480 0
DWIDTH 8 0
BBX 8 16 0 -2
BITMAP
00
80
80
80
80
80
80
f8
00
3e
20
20
3c
20
20
20
ENDCHAR
STARTCHAR 07
ENCODING 7
SWIDTH 480 0
DWIDTH 8 0
BBX 8 16 0 -2
BITMAP
00
00
38
44
44
44
38
00
00
00
00
00
00
00
00
00
ENDCHAR
STARTCHAR    8
ENCODING 8
SWIDTH 480 0
DWIDTH 8 0
BBX 8 16 0 -2
BITMAP
00
00
10
10
10
10
fe
10
10
10
10
00
fe
00
00
00
ENDCHAR
STARTCHAR    9
ENCODING 9
SWIDTH 480 0
DWIDTH 8 0
BBX 8 16 0 -2
BITMAP
00
84
c4
a4
a4
94
94
8c
84
20
20
20
20
20
20
3e
ENDCHAR
STARTCHAR    a
ENCODING 10
SWIDTH 480 0
DWIDTH 8 0
BBX 8 16 0 -2
BITMAP
00
00
88
88
88
50
50
20
00
3e
08
08
08
08
08
00
ENDCHAR
STARTCHAR    b
ENCODING 11
SWIDTH 480 0
DWIDTH 8 0
BBX 8 16 0 -2
BITMAP
10
10
10
10
10
10
10
10
f0
00
00
00
00
00
00
00
ENDCHAR
STARTCHAR    c
ENCODING 12
SWIDTH 480 0
DWIDTH 8 0
BBX 8 16 0 -2
BITMAP
00
00
00
00
00
00
00
00
f0
10
10
10
10
10
10
10
ENDCHAR
STARTCHAR    d
ENCODING 13
SWIDTH 480 0
DWIDTH 8 0
BBX 8 16 0 -2
BITMAP
00
00
00
00
00
00
00
00
1f
10
10
10
10
10
10
10
ENDCHAR
STARTCHAR    e
ENCODING 14
SWIDTH 480 0
DWIDTH 8 0
BBX 8 16 0 -2
BITMAP
10
10
10
10
10
10
10
10
1f
00
00
00
00
00
00
00
ENDCHAR
STARTCHAR    f
ENCODING 15
SWIDTH 480 0
DWIDTH 8 0
BBX 8 16 0 -2
BITMAP
10
10
10
10
10
10
10
10
ff
10
10
10
10
10
10
10
ENDCHAR
STARTCHAR   10
ENCODING 16
SWIDTH 480 0
DWIDTH 8 0
BBX 8 16 0 -2
BITMAP
00
00
ff
00
00
00
00
00
00
00
00
00
00
00
00
00
ENDCHAR
STARTCHAR   11
ENCODING 17
SWIDTH 480 0
DWIDTH 8 0
BBX 8 16 0 -2
BITMAP
00
00
00
00
00
ff
00
00
00
00
00
00
00
00
00
00
ENDCHAR
STARTCHAR   12
ENCODING 18
SWIDTH 480 0
DWIDTH 8 0
BBX 8 16 0 -2
BITMAP
00
00
00
00
00
00
00
00
ff
00
00
00
00
00
00
00
ENDCHAR
STARTCHAR   13
ENCODING 19
SWIDTH 480 0
DWIDTH 8 0
BBX 8 16 0 -2
BITMAP
00
00
00
00
00
00
00
00
00
00
00
ff
00
00
00
00
ENDCHAR
STARTCHAR   14
ENCODING 20
SWIDTH 480 0
DWIDTH 8 0
BBX 8 16 0 -2
BITMAP
00
00
00
00
00
00
00
00
00
00
00
00
00
00
ff
00
ENDCHAR
STARTCHAR   15
ENCODING 21
SWIDTH 480 0
DWIDTH 8 0
BBX 8 16 0 -2
BITMAP
10
10
10
10
10
10
10
10
1f
10
10
10
10
10
10
10
ENDCHAR
STARTCHAR   16
ENCODING 22
SWIDTH 480 0
DWIDTH 8 0
BBX 8 16 0 -2
BITMAP
10
10
10
10
10
10
10
10
f0
10
10
10
10
10
10
10
ENDCHAR
STARTCHAR   17
ENCODING 23
SWIDTH 480 0
DWIDTH 8 0
BBX 8 16 0 -2
BITMAP
10
10
10
10
10
10
10
10
ff
00
00
00
00
00
00
00
ENDCHAR
STARTCHAR   18
ENCODING 24
SWIDTH 480 0
DWIDTH 8 0
BBX 8 16 0 -2
BITMAP
00
00
00
00
00
00
00
00
ff
10
10
10
10
10
10
10
ENDCHAR
STARTCHAR   19
ENCODING 25
SWIDTH 480 0
DWIDTH 8 0
BBX 8 16 0 -2
BITMAP
10
10
10
10
10
10
10
10
10
10
10
10
10
10
10
10
ENDCHAR
STARTCHAR   1a
ENCODING 26
SWIDTH 480 0
DWIDTH 8 0
BBX 8 16 0 -2
BITMAP
00
00
02
0c
30
c0
30
0c
02
00
fe
00
fe
00
00
00
ENDCHAR
STARTCHAR   1b
ENCODING 27
SWIDTH 480 0
DWIDTH 8 0
BBX 8 16 0 -2
BITMAP
00
00
00
80
60
18
06
18
60
80
fe
00
fe
00
00
00
ENDCHAR
STARTCHAR   1c
ENCODING 28
SWIDTH 480 0
DWIDTH 8 0
BBX 8 16 0 -2
BITMAP
00
00
00
00
00
00
00
fe
24
24
24
24
44
84
00
00
ENDCHAR
STARTCHAR   1d
ENCODING 29
SWIDTH 480 0
DWIDTH 8 0
BBX 8 16 0 -2
BITMAP
00
00
00
00
02
04
08
fe
10
fe
20
40
80
00
00
00
ENDCHAR
STARTCHAR   1e
ENCODING 30
SWIDTH 480 0
DWIDTH 8 0
BBX 8 16 0 -2
BITMAP
00
00
00
00
0c
12
10
10
10
7c
10
10
3c
52
20
00
ENDCHAR
STARTCHAR   1f
ENCODING 31
SWIDTH 480 0
DWIDTH 8 0
BBX 8 16 0 -2
BITMAP
00
00
00
00
00
00
00
00
10
00
00
00
00
00
00
00
ENDCHAR
STARTCHAR 20
ENCODING 32
SWIDTH 480 0
DWIDTH 8 0
BBX 8 16 0 -2
BITMAP
00
00
00
00
00
00
00
00
00
00
00
00
00
00
00
00
ENDCHAR
STARTCHAR 21
ENCODING 33
SWIDTH 480 0
DWIDTH 8 0
BBX 8 16 0 -2
BITMAP
00
18
18
18
18
10
10
10
10
10
10
00
00
10
10
00
ENDCHAR
STARTCHAR 22
ENCODING 34
SWIDTH 480 0
DWIDTH 8 0
BBX 8 16 0 -2
BITMAP
6c
24
24
48
00
00
00
00
00
00
00
00
00
00
00
00
ENDCHAR
STARTCHAR 23
ENCODING 35
SWIDTH 480 0
DWIDTH 8 0
BBX 8 16 0 -2
BITMAP
00
12
12
12
7f
24
24
24
24
24
fe
48
48
48
48
00
ENDCHAR
STARTCHAR 24
ENCODING 36
SWIDTH 480 0
DWIDTH 8 0
BBX 8 16 0 -2
BITMAP
10
38
54
92
92
90
50
38
14
12
92
92
54
38
10
10
ENDCHAR
STARTCHAR 25
ENCODING 37
SWIDTH 480 0
DWIDTH 8 0
BBX 8 16 0 -2
BITMAP
01
61
92
92
94
94
68
08
10
16
29
29
49
49
86
80
ENDCHAR
STARTCHAR 26
ENCODING 38
SWIDTH 480 0
DWIDTH 8 0
BBX 8 16 0 -2
BITMAP
00
38
44
44
44
28
10
30
4a
8a
84
84
4a
31
00
00
ENDCHAR
STARTCHAR 27
ENCODING 39
SWIDTH 480 0
DWIDTH 8 0
BBX 8 16 0 -2
BITMAP
60
20
20
40
00
00
00
00
00
00
00
00
00
00
00
00
ENDCHAR
STARTCHAR 28
ENCODING 40
SWIDTH 480 0
DWIDTH 8 0
BBX 8 16 0 -2
BITMAP
00
02
04
08
08
10
10
10
10
10
10
10
08
08
04
02
ENDCHAR
STARTCHAR 29
ENCODING 41
SWIDTH 480 0
DWIDTH 8 0
BBX 8 16 0 -2
BITMAP
00
40
20
10
10
08
08
08
08
08
08
08
10
10
20
40
ENDCHAR
STARTCHAR 2a
ENCODING 42
SWIDTH 480 0
DWIDTH 8 0
BBX 8 16 0 -2
BITMAP
00
00
00
00
10
92
54
38
54
92
10
00
00
00
00
00
ENDCHAR
STARTCHAR 2b
ENCODING 43
SWIDTH 480 0
DWIDTH 8 0
BBX 8 16 0 -2
BITMAP
00
00
00
10
10
10
10
fe
10
10
10
10
00
00
00
00
ENDCHAR
STARTCHAR 2c
ENCODING 44
SWIDTH 480 0
DWIDTH 8 0
BBX 8 16 0 -2
BITMAP
00
00
00
00
00
00
00
00
00
00
00
00
60
20
20
40
ENDCHAR
STARTCHAR 2d
ENCODING 45
SWIDTH 480 0
DWIDTH 8 0
BBX 8 16 0 -2
BITMAP
00
00
00
00
00
00
00
fe
00
00
00
00
00
00
00
00
ENDCHAR
STARTCHAR 2e
ENCODING 46
SWIDTH 480 0
DWIDTH 8 0
BBX 8 16 0 -2
BITMAP
00
00
00
00
00
00
00
00
00
00
00
00
60
60
00
00
ENDCHAR
STARTCHAR 2f
ENCODING 47
SWIDTH 480 0
DWIDTH 8 0
BBX 8 16 0 -2
BITMAP
00
02
02
04
04
08
08
10
10
20
20
40
40
80
80
00
ENDCHAR
STARTCHAR 30
ENCODING 48
SWIDTH 480 0
DWIDTH 8 0
BBX 8 16 0 -2
BITMAP
00
18
24
24
42
42
42
42
42
42
42
24
24
18
00
00
ENDCHAR
STARTCHAR 31
ENCODING 49
SWIDTH 480 0
DWIDTH 8 0
BBX 8 16 0 -2
BITMAP
00
10
10
30
50
10
10
10
10
10
10
10
10
10
00
00
ENDCHAR
STARTCHAR 32
ENCODING 50
SWIDTH 480 0
DWIDTH 8 0
BBX 8 16 0 -2
BITMAP
00
18
24
42
42
02
04
08
10
20
20
40
40
7e
00
00
ENDCHAR
STARTCHAR 33
ENCODING 51
SWIDTH 480 0
DWIDTH 8 0
BBX 8 16 0 -2
BITMAP
00
38
44
82
82
02
04
38
04
02
82
82
44
38
00
00
ENDCHAR
STARTCHAR 34
ENCODING 52
SWIDTH 480 0
DWIDTH 8 0
BBX 8 16 0 -2
BITMAP
00
08
18
18
28
28
48
48
88
fe
08
08
08
08
00
00
ENDCHAR
STARTCHAR 35
ENCODING 53
SWIDTH 480 0
DWIDTH 8 0
BBX 8 16 0 -2
BITMAP
00
7c
40
40
40
b8
c4
82
02
02
82
82
44
38
00
00
ENDCHAR
STARTCHAR 36
ENCODING 54
SWIDTH 480 0
DWIDTH 8 0
BBX 8 16 0 -2
BITMAP
00
38
44
40
80
80
b8
c4
82
82
82
82
44
38
00
00
ENDCHAR
STARTCHAR 37
ENCODING 55
SWIDTH 480 0
DWIDTH 8 0
BBX 8 16 0 -2
BITMAP
00
fe
02
04
04
08
08
08
08
10
10
10
10
10
10
00
ENDCHAR
STARTCHAR 38
ENCODING 56
SWIDTH 480 0
DWIDTH 8 0
BBX 8 16 0 -2
BITMAP
00
38
44
82
82
82
44
38
44
82
82
82
44
38
00
00
ENDCHAR
STARTCHAR 39
ENCODING 57
SWIDTH 480 0
DWIDTH 8 0
BBX 8 16 0 -2
BITMAP
00
38
44
82
82
82
82
46
3a
02
02
82
44
38
00
00
ENDCHAR
STARTCHAR 3a
ENCODING 58
SWIDTH 480 0
DWIDTH 8 0
BBX 8 16 0 -2
BITMAP
00
00
00
00
18
18
00
00
00
00
00
18
18
00
00
00
ENDCHAR
STARTCHAR 3b
ENCODING 59
SWIDTH 480 0
DWIDTH 8 0
BBX 8 16 0 -2
BITMAP
00
00
00
00
18
18
00
00
00
00
18
08
08
10
00
00
ENDCHAR
STARTCHAR 3c
ENCODING 60
SWIDTH 480 0
DWIDTH 8 0
BBX 8 16 0 -2
BITMAP
00
00
00
02
04
08
10
20
20
10
08
04
02
00
00
00
ENDCHAR
STARTCHAR 3d
ENCODING 61
SWIDTH 480 0
DWIDTH 8 0
BBX 8 16 0 -2
BITMAP
00
00
00
00
00
fe
00
00
00
fe
00
00
00
00
00
00
ENDCHAR
STARTCHAR 3e
ENCODING 62
SWIDTH 480 0
DWIDTH 8 0
BBX 8 16 0 -2
BITMAP
00
00
00
40
20
10
08
04
04
08
10
20
40
00
00
00
ENDCHAR
STARTCHAR 3f
ENCODING 63
SWIDTH 480 0
DWIDTH 8 0
BBX 8 16 0 -2
BITMAP
00
38
44
82
82
82
04
08
08
10
10
00
00
10
10
00
ENDCHAR
STARTCHAR 40
ENCODING 64
SWIDTH 480 0
DWIDTH 8 0
BBX 8 16 0 -2
BITMAP
00
18
24
42
5a
b5
a5
a5
a5
9a
40
40
22
1c
00
00
ENDCHAR
STARTCHAR 41
ENCODING 65
SWIDTH 480 0
DWIDTH 8 0
BBX 8 16 0 -2
BITMAP
00
10
10
28
28
28
44
44
44
7c
82
82
82
82
00
00
ENDCHAR
STARTCHAR 42
ENCODING 66
SWIDTH 480 0
DWIDTH 8 0
BBX 8 16 0 -2
BITMAP
00
f0
88
84
84
84
88
f8
84
82
82
82
84
f8
00
00
ENDCHAR
STARTCHAR 43
ENCODING 67
SWIDTH 480 0
DWIDTH 8 0
BBX 8 16 0 -2
BITMAP
00
38
44
42
80
80
80
80
80
80
80
42
44
38
00
00
ENDCHAR
STARTCHAR 44
ENCODING 68
SWIDTH 480 0
DWIDTH 8 0
BBX 8 16 0 -2
BITMAP
00
f0
88
84
84
82
82
82
82
82
84
84
88
f0
00
00
ENDCHAR
STARTCHAR 45
ENCODING 69
SWIDTH 480 0
DWIDTH 8 0
BBX 8 16 0 -2
BITMAP
00
fe
80
80
80
80
80
fc
80
80
80
80
80
fe
00
00
ENDCHAR
STARTCHAR 46
ENCODING 70
SWIDTH 480 0
DWIDTH 8 0
BBX 8 16 0 -2
BITMAP
00
fe
80
80
80
80
80
fc
80
80
80
80
80
80
00
00
ENDCHAR
STARTCHAR 47
ENCODING 71
SWIDTH 480 0
DWIDTH 8 0
BBX 8 16 0 -2
BITMAP
00
18
24
42
40
80
80
8e
82
82
82
42
66
1a
00
00
ENDCHAR
STARTCHAR 48
ENCODING 72
SWIDTH 480 0
DWIDTH 8 0
BBX 8 16 0 -2
BITMAP
00
82
82
82
82
82
82
fe
82
82
82
82
82
82
00
00
ENDCHAR
STARTCHAR 49
ENCODING 73
SWIDTH 480 0
DWIDTH 8 0
BBX 8 16 0 -2
BITMAP
00
38
10
10
10
10
10
10
10
10
10
10
10
38
00
00
ENDCHAR
STARTCHAR 4a
ENCODING 74
SWIDTH 480 0
DWIDTH 8 0
BBX 8 16 0 -2
BITMAP
00
02
02
02
02
02
02
02
02
02
02
42
24
18
00
00
ENDCHAR
STARTCHAR 4b
ENCODING 75
SWIDTH 480 0
DWIDTH 8 0
BBX 8 16 0 -2
BITMAP
00
42
42
44
44
48
58
68
64
44
42
42
41
41
00
00
ENDCHAR
STARTCHAR 4c
ENCODING 76
SWIDTH 480 0
DWIDTH 8 0
BBX 8 16 0 -2
BITMAP
00
40
40
40
40
40
40
40
40
40
40
40
40
7e
00
00
ENDCHAR
STARTCHAR 4d
ENCODING 77
SWIDTH 480 0
DWIDTH 8 0
BBX 8 16 0 -2
BITMAP
00
82
82
c6
c6
c6
aa
aa
aa
92
92
92
92
82
00
00
ENDCHAR
STARTCHAR 4e
ENCODING 78
SWIDTH 480 0
DWIDTH 8 0
BBX 8 16 0 -2
BITMAP
00
82
c2
c2
a2
a2
92
92
92
8a
8a
86
86
82
00
00
ENDCHAR
STARTCHAR 4f
ENCODING 79
SWIDTH 480 0
DWIDTH 8 0
BBX 8 16 0 -2
BITMAP
00
38
44
44
82
82
82
82
82
82
82
44
44
38
00
00
ENDCHAR
STARTCHAR 50
ENCODING 80
SWIDTH 480 0
DWIDTH 8 0
BBX 8 16 0 -2
BITMAP
00
f8
84
82
82
82
84
f8
80
80
80
80
80
80
00
00
ENDCHAR
STARTCHAR 51
ENCODING 81
SWIDTH 480 0
DWIDTH 8 0
BBX 8 16 0 -2
BITMAP
00
38
44
44
82
82
82
82
82
82
ba
44
44
38
08
06
ENDCHAR
STARTCHAR 52
ENCODING 82
SWIDTH 480 0
DWIDTH 8 0
BBX 8 16 0 -2
BITMAP
00
f8
84
82
82
82
84
f8
88
84
84
84
82
82
00
00
ENDCHAR
STARTCHAR 53
ENCODING 83
SWIDTH 480 0
DWIDTH 8 0
BBX 8 16 0 -2
BITMAP
00
38
44
82
82
80
60
18
04
02
82
82
44
38
00
00
ENDCHAR
STARTCHAR 54
ENCODING 84
SWIDTH 480 0
DWIDTH 8 0
BBX 8 16 0 -2
BITMAP
00
fe
10
10
10
10
10
10
10
10
10
10
10
10
00
00
ENDCHAR
STARTCHAR 55
ENCODING 85
SWIDTH 480 0
DWIDTH 8 0
BBX 8 16 0 -2
BITMAP
00
82
82
82
82
82
82
82
82
82
82
82
44
38
00
00
ENDCHAR
STARTCHAR 56
ENCODING 86
SWIDTH 480 0
DWIDTH 8 0
BBX 8 16 0 -2
BITMAP
00
82
82
82
82
44
44
44
28
28
28
10
10
10
00
00
ENDCHAR
STARTCHAR 57
ENCODING 87
SWIDTH 480 0
DWIDTH 8 0
BBX 8 16 0 -2
BITMAP
00
92
92
92
92
92
92
aa
aa
6c
44
44
44
44
00
00
ENDCHAR
STARTCHAR 58
ENCODING 88
SWIDTH 480 0
DWIDTH 8 0
BBX 8 16 0 -2
BITMAP
00
82
44
44
28
28
10
28
28
28
44
44
82
82
00
00
ENDCHAR
STARTCHAR 59
ENCODING 89
SWIDTH 480 0
DWIDTH 8 0
BBX 8 16 0 -2
BITMAP
00
82
82
44
44
44
28
28
10
10
10
10
10
10
00
00
ENDCHAR
STARTCHAR 5a
ENCODING 90
SWIDTH 480 0
DWIDTH 8 0
BBX 8 16 0 -2
BITMAP
00
fe
04
04
08
08
10
10
20
20
40
40
80
fe
00
00
ENDCHAR
STARTCHAR 5b
ENCODING 91
SWIDTH 480 0
DWIDTH 8 0
BBX 8 16 0 -2
BITMAP
1e
10
10
10
10
10
10
10
10
10
10
10
10
10
10
1e
ENDCHAR
STARTCHAR 5c
ENCODING 92
SWIDTH 480 0
DWIDTH 8 0
BBX 8 16 0 -2
BITMAP
00
80
80
40
40
20
20
10
10
08
08
04
04
02
02
00
ENDCHAR
STARTCHAR 5d
ENCODING 93
SWIDTH 480 0
DWIDTH 8 0
BBX 8 16 0 -2
BITMAP
f0
10
10
10
10
10
10
10
10
10
10
10
10
10
10
f0
ENDCHAR
STARTCHAR 5e
ENCODING 94
SWIDTH 480 0
DWIDTH 8 0
BBX 8 16 0 -2
BITMAP
10
28
44
82
00
00
00
00
00
00
00
00
00
00
00
00
ENDCHAR
STARTCHAR 5f
ENCODING 95
SWIDTH 480 0
DWIDTH 8 0
BBX 8 16 0 -2
BITMAP
00
00
00
00
00
00
00
00
00
00
00
00
00
00
fe
00
ENDCHAR
STARTCHAR 60
ENCODING 96
SWIDTH 480 0
DWIDTH 8 0
BBX 8 16 0 -2
BITMAP
30
20
20
10
00
00
00
00
00
00
00
00
00
00
00
00
ENDCHAR
STARTCHAR 61
ENCODING 97
SWIDTH 480 0
DWIDTH 8 0
BBX 8 16 0 -2
BITMAP
00
00
00
00
00
3c
42
02
3e
42
82
82
86
7a
00
00
ENDCHAR
STARTCHAR 62
ENCODING 98
SWIDTH 480 0
DWIDTH 8 0
BBX 8 16 0 -2
BITMAP
00
80
80
80
80
b8
c4
82
82
82
82
82
c4
b8
00
00
ENDCHAR
STARTCHAR 63
ENCODING 99
SWIDTH 480 0
DWIDTH 8 0
BBX 8 16 0 -2
BITMAP
00
00
00
00
00
38
44
82
80
80
80
82
44
38
00
00
ENDCHAR
STARTCHAR 64
ENCODING 100
SWIDTH 480 0
DWIDTH 8 0
BBX 8 16 0 -2
BITMAP
00
02
02
02
02
3a
46
82
82
82
82
82
46
3a
00
00
ENDCHAR
STARTCHAR 65
ENCODING 101
SWIDTH 480 0
DWIDTH 8 0
BBX 8 16 0 -2
BITMAP
00
00
00
00
00
38
44
82
82
fe
80
82
44
38
00
00
ENDCHAR
STARTCHAR 66
ENCODING 102
SWIDTH 480 0
DWIDTH 8 0
BBX 8 16 0 -2
BITMAP
00
0c
10
10
10
7c
10
10
10
10
10
10
10
10
00
00
ENDCHAR
STARTCHAR 67
ENCODING 103
SWIDTH 480 0
DWIDTH 8 0
BBX 8 16 0 -2
BITMAP
00
00
00
00
00
3b
44
44
44
38
40
78
84
82
82
7c
ENDCHAR
STARTCHAR 68
ENCODING 104
SWIDTH 480 0
DWIDTH 8 0
BBX 8 16 0 -2
BITMAP
00
40
40
40
40
5c
62
42
42
42
42
42
42
42
00
00
ENDCHAR
STARTCHAR 69
ENCODING 105
SWIDTH 480 0
DWIDTH 8 0
BBX 8 16 0 -2
BITMAP
00
10
10
00
00
30
10
10
10
10
10
10
10
10
00
00
ENDCHAR
STARTCHAR 6a
ENCODING 106
SWIDTH 480 0
DWIDTH 8 0
BBX 8 16 0 -2
BITMAP
00
08
08
00
00
18
08
08
08
08
08
08
08
08
10
60
ENDCHAR
STARTCHAR 6b
ENCODING 107
SWIDTH 480 0
DWIDTH 8 0
BBX 8 16 0 -2
BITMAP
00
40
40
40
40
42
44
48
50
68
44
44
42
42
00
00
ENDCHAR
STARTCHAR 6c
ENCODING 108
SWIDTH 480 0
DWIDTH 8 0
BBX 8 16 0 -2
BITMAP
00
30
10
10
10
10
10
10
10
10
10
10
10
10
00
00
ENDCHAR
STARTCHAR 6d
ENCODING 109
SWIDTH 480 0
DWIDTH 8 0
BBX 8 16 0 -2
BITMAP
00
00
00
00
00
ec
92
92
92
92
92
92
92
92
00
00
ENDCHAR
STARTCHAR 6e
ENCODING 110
SWIDTH 480 0
DWIDTH 8 0
BBX 8 16 0 -2
BITMAP
00
00
00
00
00
5c
62
42
42
42
42
42
42
42
00
00
ENDCHAR
STARTCHAR 6f
ENCODING 111
SWIDTH 480 0
DWIDTH 8 0
BBX 8 16 0 -2
BITMAP
00
00
00
00
00
38
44
82
82
82
82
82
44
38
00
00
ENDCHAR
STARTCHAR 70
ENCODING 112
SWIDTH 480 0
DWIDTH 8 0
BBX 8 16 0 -2
BITMAP
00
00
00
00
00
b8
c4
82
82
82
82
c4
b8
80
80
80
ENDCHAR
STARTCHAR 71
ENCODING 113
SWIDTH 480 0
DWIDTH 8 0
BBX 8 16 0 -2
BITMAP
00
00
00
00
00
3a
46
82
82
82
82
46
3a
02
02
02
ENDCHAR
STARTCHAR 72
ENCODING 114
SWIDTH 480 0
DWIDTH 8 0
BBX 8 16 0 -2
BITMAP
00
00
00
00
00
2c
30
20
20
20
20
20
20
20
00
00
ENDCHAR
STARTCHAR 73
ENCODING 115
SWIDTH 480 0
DWIDTH 8 0
BBX 8 16 0 -2
BITMAP
00
00
00
00
00
3c
42
40
60
18
06
02
42
3c
00
00
ENDCHAR
STARTCHAR 74
ENCODING 116
SWIDTH 480 0
DWIDTH 8 0
BBX 8 16 0 -2
BITMAP
00
00
10
10
10
7c
10
10
10
10
10
10
10
0c
00
00
ENDCHAR
STARTCHAR 75
ENCODING 117
SWIDTH 480 0
DWIDTH 8 0
BBX 8 16 0 -2
BITMAP
00
00
00
00
00
42
42
42
42
42
42
42
46
3a
00
00
ENDCHAR
STARTCHAR 76
ENCODING 118
SWIDTH 480 0
DWIDTH 8 0
BBX 8 16 0 -2
BITMAP
00
00
00
00
00
82
82
82
44
44
28
28
10
10
00
00
ENDCHAR
STARTCHAR 77
ENCODING 119
SWIDTH 480 0
DWIDTH 8 0
BBX 8 16 0 -2
BITMAP
00
00
00
00
00
92
92
92
92
aa
aa
44
44
44
00
00
ENDCHAR
STARTCHAR 78
ENCODING 120
SWIDTH 480 0
DWIDTH 8 0
BBX 8 16 0 -2
BITMAP
00
00
00
00
00
82
44
28
28
10
28
28
44
82
00
00
ENDCHAR
STARTCHAR 79
ENCODING 121
SWIDTH 480 0
DWIDTH 8 0
BBX 8 16 0 -2
BITMAP
00
00
00
00
00
82
82
44
44
28
28
18
10
10
20
c0
ENDCHAR
STARTCHAR 7a
ENCODING 122
SWIDTH 480 0
DWIDTH 8 0
BBX 8 16 0 -2
BITMAP
00
00
00
00
00
7e
04
08
08
10
10
20
40
fe
00
00
ENDCHAR
STARTCHAR 7b
ENCODING 123
SWIDTH 480 0
DWIDTH 8 0
BBX 8 16 0 -2
BITMAP
04
08
08
08
08
08
08
10
08
08
08
08
08
08
08
04
ENDCHAR
STARTCHAR 7c
ENCODING 124
SWIDTH 480 0
DWIDTH 8 0
BBX 8 16 0 -2
BITMAP
10
10
10
10
10
10
10
10
10
10
10
10
10
10
10
10
ENDCHAR
STARTCHAR 7d
ENCODING 125
SWIDTH 480 0
DWIDTH 8 0
BBX 8 16 0 -2
BITMAP
40
20
20
20
20
20
20
10
20
20
20
20
20
20
20
40
ENDCHAR
STARTCHAR 7e
ENCODING 126
SWIDTH 480 0
DWIDTH 8 0
BBX 8 16 0 -2
BITMAP
00
00
00
60
92
0c
00
00
00
00
00
00
00
00
00
00
ENDCHAR
STARTCHAR a1
ENCODING 161
SWIDTH 480 0
DWIDTH 8 0
BBX 8 16 0 -2
BITMAP
00
10
10
00
00
10
10
10
10
10
10
10
30
30
30
30
ENDCHAR
STARTCHAR a2
ENCODING 162
SWIDTH 480 0
DWIDTH 8 0
BBX 8 16 0 -2
BITMAP
00
00
10
3c
52
92
90
90
90
90
90
92
52
3c
10
00
ENDCHAR
STARTCHAR a3
ENCODING 163
SWIDTH 480 0
DWIDTH 8 0
BBX 8 16 0 -2
BITMAP
00
00
00
00
0c
12
10
10
10
7c
10
10
3c
52
20
00
ENDCHAR
STARTCHAR a4
ENCODING 164
SWIDTH 480 0
DWIDTH 8 0
BBX 8 16 0 -2
BITMAP
00
00
00
00
00
42
3c
24
24
3c
42
00
00
00
00
00
ENDCHAR
STARTCHAR a5
ENCODING 165
SWIDTH 480 0
DWIDTH 8 0
BBX 8 16 0 -2
BITMAP
82
82
44
44
44
28
28
fe
10
fe
10
10
10
10
00
00
ENDCHAR
STARTCHAR a6
ENCODING 166
SWIDTH 480 0
DWIDTH 8 0
BBX 8 16 0 -2
BITMAP
00
10
10
10
10
10
00
00
00
10
10
10
10
10
00
00
ENDCHAR
STARTCHAR a7
ENCODING 167
SWIDTH 480 0
DWIDTH 8 0
BBX 8 16 0 -2
BITMAP
00
3c
42
40
20
3c
42
42
42
3c
04
02
42
3c
00
00
ENDCHAR
STARTCHAR a8
ENCODING 168
SWIDTH 480 0
DWIDTH 8 0
BBX 8 16 0 -2
BITMAP
00
24
24
24
00
00
00
00
00
00
00
00
00
00
00
00
ENDCHAR
STARTCHAR a9
ENCODING 169
SWIDTH 480 0
DWIDTH 8 0
BBX 8 16 0 -2
BITMAP
00
00
3c
42
99
a5
a1
a1
a1
a5
a5
9b
42
3c
00
00
ENDCHAR
STARTCHAR aa
ENCODING 170
SWIDTH 480 0
DWIDTH 8 0
BBX 8 16 0 -2
BITMAP
00
1c
22
1e
22
26
1a
00
3e
00
00
00
00
00
00
00
ENDCHAR
STARTCHAR ab
ENCODING 171
SWIDTH 480 0
DWIDTH 8 0
BBX 8 16 0 -2
BITMAP
00
00
00
09
12
24
48
90
90
48
24
12
09
00
00
00
ENDCHAR
STARTCHAR ac
ENCODING 172
SWIDTH 480 0
DWIDTH 8 0
BBX 8 16 0 -2
BITMAP
00
00
00
00
00
00
00
fe
fe
06
06
00
00
00
00
00
ENDCHAR
STARTCHAR ad
ENCODING 173
SWIDTH 480 0
DWIDTH 8 0
BBX 8 16 0 -2
BITMAP
00
00
00
00
00
00
00
fe
fe
00
00
00
00
00
00
00
ENDCHAR
STARTCHAR ae
ENCODING 174
SWIDTH 480 0
DWIDTH 8 0
BBX 8 16 0 -2
BITMAP
00
00
3c
42
b9
a5
a5
b9
a9
a5
a5
a3
42
3c
00
00
ENDCHAR
STARTCHAR af
ENCODING 175
SWIDTH 480 0
DWIDTH 8 0
BBX 8 16 0 -2
BITMAP
00
00
fe
00
00
00
00
00
00
00
00
00
00
00
00
00
ENDCHAR
STARTCHAR b0
ENCODING 176
SWIDTH 480 0
DWIDTH 8 0
BBX 8 16 0 -2
BITMAP
00
38
44
44
44
38
00
00
00
00
00
00
00
00
00
00
ENDCHAR
STARTCHAR b1
ENCODING 177
SWIDTH 480 0
DWIDTH 8 0
BBX 8 16 0 -2
BITMAP
00
00
00
00
10
10
10
fe
10
10
10
00
fe
00
00
00
ENDCHAR
STARTCHAR b2
ENCODING 178
SWIDTH 480 0
DWIDTH 8 0
BBX 8 16 0 -2
BITMAP
00
18
24
04
08
10
20
3c
00
00
00
00
00
00
00
00
ENDCHAR
STARTCHAR b3
ENCODING 179
SWIDTH 480 0
DWIDTH 8 0
BBX 8 16 0 -2
BITMAP
00
18
24
04
18
04
24
18
00
00
00
00
00
00
00
00
ENDCHAR
STARTCHAR b4
ENCODING 180
SWIDTH 480 0
DWIDTH 8 0
BBX 8 16 0 -2
BITMAP
00
0c
18
30
00
00
00
00
00
00
00
00
00
00
00
00
ENDCHAR
STARTCHAR b5
ENCODING 181
SWIDTH 480 0
DWIDTH 8 0
BBX 8 16 0 -2
BITMAP
00
00
00
00
00
00
00
22
22
22
44
44
6c
54
82
80
ENDCHAR
STARTCHAR b6
ENCODING 182
SWIDTH 480 0
DWIDTH 8 0
BBX 8 16 0 -2
BITMAP
00
3c
74
74
74
74
34
14
14
14
14
14
14
14
00
00
ENDCHAR
STARTCHAR b7
ENCODING 183
SWIDTH 480 0
DWIDTH 8 0
BBX 8 16 0 -2
BITMAP
00
00
00
00
00
00
18
18
00
00
00
00
00
00
00
00
ENDCHAR
STARTCHAR b8
ENCODING 184
SWIDTH 480 0
DWIDTH 8 0
BBX 8 16 0 -2
BITMAP
00
00
00
00
00
00
00
00
00
00
00
00
00
0c
08
10
ENDCHAR
STARTCHAR b9
ENCODING 185
SWIDTH 480 0
DWIDTH 8 0
BBX 8 16 0 -2
BITMAP
00
08
18
28
08
08
08
08
00
00
00
00
00
00
00
00
ENDCHAR
STARTCHAR ba
ENCODING 186
SWIDTH 480 0
DWIDTH 8 0
BBX 8 16 0 -2
BITMAP
00
18
24
24
24
24
18
00
3c
00
00
00
00
00
00
00
ENDCHAR
STARTCHAR bb
ENCODING 187
SWIDTH 480 0
DWIDTH 8 0
BBX 8 16 0 -2
BITMAP
00
00
00
00
90
48
24
12
09
09
12
24
48
90
00
00
ENDCHAR
STARTCHAR bc
ENCODING 188
SWIDTH 480 0
DWIDTH 8 0
BBX 8 16 0 -2
BITMAP
00
40
c4
44
48
48
50
12
22
26
4a
5f
82
82
00
00
ENDCHAR
STARTCHAR bd
ENCODING 189
SWIDTH 480 0
DWIDTH 8 0
BBX 8 16 0 -2
BITMAP
00
40
c4
44
48
48
50
1c
32
22
44
48
88
9e
00
00
ENDCHAR
STARTCHAR be
ENCODING 190
SWIDTH 480 0
DWIDTH 8 0
BBX 8 16 0 -2
BITMAP
00
60
92
12
64
14
98
6a
12
16
2a
3f
42
42
00
00
ENDCHAR
STARTCHAR bf
ENCODING 191
SWIDTH 480 0
DWIDTH 8 0
BBX 8 16 0 -2
BITMAP
08
08
00
00
08
08
08
10
20
20
41
41
41
22
1c
00
ENDCHAR
STARTCHAR c0
ENCODING 192
SWIDTH 480 0
DWIDTH 8 0
BBX 8 16 0 -2
BITMAP
30
10
08
10
10
28
28
44
44
7c
82
82
82
82
00
00
ENDCHAR
STARTCHAR c1
ENCODING 193
SWIDTH 480 0
DWIDTH 8 0
BBX 8 16 0 -2
BITMAP
18
10
20
10
10
28
28
44
44
7c
82
82
82
82
00
00
ENDCHAR
STARTCHAR c2
ENCODING 194
SWIDTH 480 0
DWIDTH 8 0
BBX 8 16 0 -2
BITMAP
10
38
44
10
10
28
28
44
44
7c
82
82
82
82
00
00
ENDCHAR
STARTCHAR c3
ENCODING 195
SWIDTH 480 0
DWIDTH 8 0
BBX 8 16 0 -2
BITMAP
34
58
00
10
10
28
28
44
44
7c
82
82
82
82
00
00
ENDCHAR
STARTCHAR c4
ENCODING 196
SWIDTH 480 0
DWIDTH 8 0
BBX 8 16 0 -2
BITMAP
44
44
00
10
10
28
28
44
44
7c
82
82
82
82
00
00
ENDCHAR
STARTCHAR c5
ENCODING 197
SWIDTH 480 0
DWIDTH 8 0
BBX 8 16 0 -2
BITMAP
10
28
10
10
10
28
28
44
44
7c
82
82
82
82
00
00
ENDCHAR
STARTCHAR c6
ENCODING 198
SWIDTH 480 0
DWIDTH 8 0
BBX 8 16 0 -2
BITMAP
00
00
1f
28
28
28
2e
48
48
78
88
88
88
8f
00
00
ENDCHAR
STARTCHAR c7
ENCODING 199
SWIDTH 480 0
DWIDTH 8 0
BBX 8 16 0 -2
BITMAP
00
38
44
42
80
80
80
80
80
80
42
44
38
08
08
10
ENDCHAR
STARTCHAR c8
ENCODING 200
SWIDTH 480 0
DWIDTH 8 0
BBX 8 16 0 -2
BITMAP
30
10
08
fe
80
80
80
fc
80
80
80
80
80
fe
00
00
ENDCHAR
STARTCHAR c9
ENCODING 201
SWIDTH 480 0
DWIDTH 8 0
BBX 8 16 0 -2
BITMAP
18
10
20
fe
80
80
80
fc
80
80
80
80
80
fe
00
00
ENDCHAR
STARTCHAR ca
ENCODING 202
SWIDTH 480 0
DWIDTH 8 0
BBX 8 16 0 -2
BITMAP
10
38
44
fe
80
80
80
fc
80
80
80
80
80
fe
00
00
ENDCHAR
STARTCHAR cb
ENCODING 203
SWIDTH 480 0
DWIDTH 8 0
BBX 8 16 0 -2
BITMAP
44
44
00
fe
80
80
80
fc
80
80
80
80
80
fe
00
00
ENDCHAR
STARTCHAR cc
ENCODING 204
SWIDTH 480 0
DWIDTH 8 0
BBX 8 16 0 -2
BITMAP
30
10
08
38
10
10
10
10
10
10
10
10
10
38
00
00
ENDCHAR
STARTCHAR cd
ENCODING 205
SWIDTH 480 0
DWIDTH 8 0
BBX 8 16 0 -2
BITMAP
18
10
20
38
10
10
10
10
10
10
10
10
10
38
00
00
ENDCHAR
STARTCHAR ce
ENCODING 206
SWIDTH 480 0
DWIDTH 8 0
BBX 8 16 0 -2
BITMAP
10
38
44
38
10
10
10
10
10
10
10
10
10
38
00
00
ENDCHAR
STARTCHAR cf
ENCODING 207
SWIDTH 480 0
DWIDTH 8 0
BBX 8 16 0 -2
BITMAP
44
44
00
38
10
10
10
10
10
10
10
10
10
38
00
00
ENDCHAR
STARTCHAR d0
ENCODING 208
SWIDTH 480 0
DWIDTH 8 0
BBX 8 16 0 -2
BITMAP
00
70
48
44
44
42
42
f2
42
42
44
44
48
70
00
00
ENDCHAR
STARTCHAR d1
ENCODING 209
SWIDTH 480 0
DWIDTH 8 0
BBX 8 16 0 -2
BITMAP
34
58
82
82
c2
c2
a2
a2
92
8a
8a
86
86
82
00
00
ENDCHAR
STARTCHAR d2
ENCODING 210
SWIDTH 480 0
DWIDTH 8 0
BBX 8 16 0 -2
BITMAP
30
10
08
38
44
82
82
82
82
82
82
82
44
38
00
00
ENDCHAR
STARTCHAR d3
ENCODING 211
SWIDTH 480 0
DWIDTH 8 0
BBX 8 16 0 -2
BITMAP
18
10
20
38
44
82
82
82
82
82
82
82
44
38
00
00
ENDCHAR
STARTCHAR d4
ENCODING 212
SWIDTH 480 0
DWIDTH 8 0
BBX 8 16 0 -2
BITMAP
10
38
44
38
44
82
82
82
82
82
82
82
44
38
00
00
ENDCHAR
STARTCHAR d5
ENCODING 213
SWIDTH 480 0
DWIDTH 8 0
BBX 8 16 0 -2
BITMAP
34
58
00
38
44
82
82
82
82
82
82
82
44
38
00
00
ENDCHAR
STARTCHAR d6
ENCODING 214
SWIDTH 480 0
DWIDTH 8 0
BBX 8 16 0 -2
BITMAP
44
44
00
38
44
82
82
82
82
82
82
82
44
38
00
00
ENDCHAR
STARTCHAR d7
ENCODING 215
SWIDTH 480 0
DWIDTH 8 0
BBX 8 16 0 -2
BITMAP
00
00
00
00
81
42
24
18
18
24
42
81
00
00
00
00
ENDCHAR
STARTCHAR d8
ENCODING 216
SWIDTH 480 0
DWIDTH 8 0
BBX 8 16 0 -2
BITMAP
02
02
3c
44
86
8a
8a
92
92
a2
a2
c2
44
78
80
80
ENDCHAR
STARTCHAR d9
ENCODING 217
SWIDTH 480 0
DWIDTH 8 0
BBX 8 16 0 -2
BITMAP
30
10
08
82
82
82
82
82
82
82
82
82
44
38
00
00
ENDCHAR
STARTCHAR da
ENCODING 218
SWIDTH 480 0
DWIDTH 8 0
BBX 8 16 0 -2
BITMAP
18
10
20
82
82
82
82
82
82
82
82
82
44
38
00
00
ENDCHAR
STARTCHAR db
ENCODING 219
SWIDTH 480 0
DWIDTH 8 0
BBX 8 16 0 -2
BITMAP
10
38
44
00
82
82
82
82
82
82
82
82
44
38
00
00
ENDCHAR
STARTCHAR dc
ENCODING 220
SWIDTH 480 0
DWIDTH 8 0
BBX 8 16 0 -2
BITMAP
44
44
00
82
82
82
82
82
82
82
82
82
44
38
00
00
ENDCHAR
STARTCHAR dd
ENCODING 221
SWIDTH 480 0
DWIDTH 8 0
BBX 8 16 0 -2
BITMAP
18
10
a2
82
44
44
28
28
10
10
10
10
10
10
00
00
ENDCHAR
STARTCHAR de
ENCODING 222
SWIDTH 480 0
DWIDTH 8 0
BBX 8 16 0 -2
BITMAP
80
80
f8
84
82
82
84
f8
80
80
80
80
80
80
00
00
ENDCHAR
STARTCHAR df
ENCODING 223
SWIDTH 480 0
DWIDTH 8 0
BBX 8 16 0 -2
BITMAP
00
78
84
82
82
84
b8
84
82
82
82
82
84
b8
00
00
ENDCHAR
STARTCHAR e0
ENCODING 224
SWIDTH 480 0
DWIDTH 8 0
BBX 8 16 0 -2
BITMAP
00
30
10
08
00
3c
42
02
3e
42
82
82
86
7a
00
00
ENDCHAR
STARTCHAR e1
ENCODING 225
SWIDTH 480 0
DWIDTH 8 0
BBX 8 16 0 -2
BITMAP
00
18
10
20
00
3c
42
02
3e
42
82
82
86
7a
00
00
ENDCHAR
STARTCHAR e2
ENCODING 226
SWIDTH 480 0
DWIDTH 8 0
BBX 8 16 0 -2
BITMAP
00
10
38
44
00
3c
42
02
3e
42
82
82
86
7a
00
00
ENDCHAR
STARTCHAR e3
ENCODING 227
SWIDTH 480 0
DWIDTH 8 0
BBX 8 16 0 -2
BITMAP
00
34
58
00
00
3c
42
02
3e
42
82
82
86
7a
00
00
ENDCHAR
STARTCHAR e4
ENCODING 228
SWIDTH 480 0
DWIDTH 8 0
BBX 8 16 0 -2
BITMAP
00
00
24
24
00
3c
42
02
3e
42
82
82
86
7a
00
00
ENDCHAR
STARTCHAR e5
ENCODING 229
SWIDTH 480 0
DWIDTH 8 0
BBX 8 16 0 -2
BITMAP
00
10
28
10
00
3c
42
02
3e
42
82
82
86
7a
00
00
ENDCHAR
STARTCHAR e6
ENCODING 230
SWIDTH 480 0
DWIDTH 8 0
BBX 8 16 0 -2
BITMAP
00
00
00
00
00
6c
92
12
3e
50
90
92
92
6c
00
00
ENDCHAR
STARTCHAR e7
ENCODING 231
SWIDTH 480 0
DWIDTH 8 0
BBX 8 16 0 -2
BITMAP
00
00
00
00
38
44
82
80
80
80
82
44
38
10
10
20
ENDCHAR
STARTCHAR e8
ENCODING 232
SWIDTH 480 0
DWIDTH 8 0
BBX 8 16 0 -2
BITMAP
00
30
10
08
00
38
44
82
82
fe
80
82
44
38
00
00
ENDCHAR
STARTCHAR e9
ENCODING 233
SWIDTH 480 0
DWIDTH 8 0
BBX 8 16 0 -2
BITMAP
00
18
10
20
00
38
44
82
82
fe
80
82
44
38
00
00
ENDCHAR
STARTCHAR ea
ENCODING 234
SWIDTH 480 0
DWIDTH 8 0
BBX 8 16 0 -2
BITMAP
00
10
38
44
00
38
44
82
82
fe
80
82
44
38
00
00
ENDCHAR
STARTCHAR eb
ENCODING 235
SWIDTH 480 0
DWIDTH 8 0
BBX 8 16 0 -2
BITMAP
00
44
44
00
00
38
44
82
82
fe
80
82
44
38
00
00
ENDCHAR
STARTCHAR ec
ENCODING 236
SWIDTH 480 0
DWIDTH 8 0
BBX 8 16 0 -2
BITMAP
00
30
10
08
00
30
10
10
10
10
10
10
10
10
00
00
ENDCHAR
STARTCHAR ed
ENCODING 237
SWIDTH 480 0
DWIDTH 8 0
BBX 8 16 0 -2
BITMAP
00
18
10
20
00
30
10
10
10
10
10
10
10
10
00
00
ENDCHAR
STARTCHAR ee
ENCODING 238
SWIDTH 480 0
DWIDTH 8 0
BBX 8 16 0 -2
BITMAP
00
10
38
44
00
30
10
10
10
10
10
10
10
10
00
00
ENDCHAR
STARTCHAR ef
ENCODING 239
SWIDTH 480 0
DWIDTH 8 0
BBX 8 16 0 -2
BITMAP
00
44
44
00
00
30
10
10
10
10
10
10
10
10
00
00
ENDCHAR
STARTCHAR f0
ENCODING 240
SWIDTH 480 0
DWIDTH 8 0
BBX 8 16 0 -2
BITMAP
00
64
18
30
48
38
44
82
82
82
82
82
44
38
00
00
ENDCHAR
STARTCHAR f1
ENCODING 241
SWIDTH 480 0
DWIDTH 8 0
BBX 8 16 0 -2
BITMAP
00
34
58
00
00
5c
62
42
42
42
42
42
42
42
00
00
ENDCHAR
STARTCHAR f2
ENCODING 242
SWIDTH 480 0
DWIDTH 8 0
BBX 8 16 0 -2
BITMAP
00
30
10
08
00
38
44
82
82
82
82
82
44
38
00
00
ENDCHAR
STARTCHAR f3
ENCODING 243
SWIDTH 480 0
DWIDTH 8 0
BBX 8 16 0 -2
BITMAP
00
18
10
20
00
38
44
82
82
82
82
82
44
38
00
00
ENDCHAR
STARTCHAR f4
ENCODING 244
SWIDTH 480 0
DWIDTH 8 0
BBX 8 16 0 -2
BITMAP
00
10
38
44
00
38
44
82
82
82
82
82
44
38
00
00
ENDCHAR
STARTCHAR f5
ENCODING 245
SWIDTH 480 0
DWIDTH 8 0
BBX 8 16 0 -2
BITMAP
00
34
58
00
00
38
44
82
82
82
82
82
44
38
00
00
ENDCHAR
STARTCHAR f6
ENCODING 246
SWIDTH 480 0
DWIDTH 8 0
BBX 8 16 0 -2
BITMAP
00
44
44
00
00
38
44
82
82
82
82
82
44
38
00
00
ENDCHAR
STARTCHAR f7
ENCODING 247
SWIDTH 480 0
DWIDTH 8 0
BBX 8 16 0 -2
BITMAP
00
00
00
00
00
10
10
00
fe
00
10
10
00
00
00
00
ENDCHAR
STARTCHAR f8
ENCODING 248
SWIDTH 480 0
DWIDTH 8 0
BBX 8 16 0 -2
BITMAP
00
00
00
00
00
3a
44
8a
8a
92
a2
a2
44
b8
00
00
ENDCHAR
STARTCHAR f9
ENCODING 249
SWIDTH 480 0
DWIDTH 8 0
BBX 8 16 0 -2
BITMAP
00
30
10
08
00
42
42
42
42
42
42
42
46
3a
00
00
ENDCHAR
STARTCHAR fa
ENCODING 250
SWIDTH 480 0
DWIDTH 8 0
BBX 8 16 0 -2
BITMAP
00
18
10
20
00
42
42
42
42
42
42
42
46
3a
00
00
ENDCHAR
STARTCHAR fb
ENCODING 251
SWIDTH 480 0
DWIDTH 8 0
BBX 8 16 0 -2
BITMAP
00
10
38
44
00
42
42
42
42
42
42
42
46
3a
00
00
ENDCHAR
STARTCHAR fc
ENCODING 252
SWIDTH 480 0
DWIDTH 8 0
BBX 8 16 0 -2
BITMAP
00
24
24
00
00
42
42
42
42
42
42
42
46
3a
00
00
ENDCHAR
STARTCHAR fd
ENCODING 253
SWIDTH 480 0
DWIDTH 8 0
BBX 8 16 0 -2
BITMAP
00
0c
08
10
00
42
42
22
24
14
08
08
10
10
20
40
ENDCHAR
STARTCHAR fe
ENCODING 254
SWIDTH 480 0
DWIDTH 8 0
BBX 8 16 0 -2
BITMAP
00
00
40
40
40
78
44
42
42
42
44
78
40
40
40
40
ENDCHAR
STARTCHAR ff
ENCODING 255
SWIDTH 480 0
DWIDTH 8 0
BBX 8 16 0 -2
BITMAP
00
24
24
00
00
42
42
22
24
14
08
08
10
10
20
40
ENDCHAR
ENDFONT
